<svg width="18" height="18" viewBox="0 0 18 18" fill="none" xmlns="http://www.w3.org/2000/svg">
<path d="M3.00586 2.25H14.9941C15.6387 2.26172 16.1719 2.48145 16.5938 2.90918C17.0156 3.33691 17.2324 3.86719 17.2441 4.5V13.5C17.2324 14.1328 17.0156 14.6631 16.5938 15.0908C16.1719 15.5186 15.6387 15.7383 14.9941 15.75H3.00586C2.36133 15.7383 1.82812 15.5186 1.40625 15.0908C0.984375 14.6631 0.767578 14.1328 0.755859 13.5V4.5C0.767578 3.86719 0.984375 3.33691 1.40625 2.90918C1.82812 2.48145 2.36133 2.26172 3.00586 2.25ZM15.6621 4.16602C15.6035 4.03711 15.5156 3.9375 15.3984 3.86719C15.2812 3.79688 15.1465 3.75586 14.9941 3.74414H3.00586C2.85352 3.75586 2.71875 3.79688 2.60156 3.86719C2.48438 3.9375 2.39648 4.03711 2.33789 4.16602L9 8.8418L15.6621 4.16602ZM15.75 5.94141L9.42188 10.3711C9.29297 10.4531 9.15234 10.4941 9 10.4941C8.84766 10.4941 8.70703 10.4531 8.57812 10.3711L2.25 5.94141V13.5C2.25 13.7109 2.32324 13.8867 2.46973 14.0273C2.61621 14.168 2.79492 14.2441 3.00586 14.2559H14.9941C15.2051 14.2441 15.3838 14.168 15.5303 14.0273C15.6768 13.8867 15.75 13.7109 15.75 13.5V5.94141Z" fill="#4A4E5E"/>
</svg>
