<svg width="130" height="113" viewBox="0 0 130 113" fill="none" xmlns="http://www.w3.org/2000/svg">
<mask id="mask0_283_1710" style="mask-type:luminance" maskUnits="userSpaceOnUse" x="-12" y="-7" width="156" height="133">
<path d="M124.031 -6.90071L-11.9499 18.0825L7.80423 125.602L143.785 100.619L124.031 -6.90071Z" fill="white"/>
</mask>
<g mask="url(#mask0_283_1710)">
<path fill-rule="evenodd" clip-rule="evenodd" d="M106.389 107.49C106.389 107.49 144.217 32.5153 64.8042 40.5572C-0.967179 38.9762 -6.37298 84.3095 6.38061 104.089C17.4325 121.23 53.3025 104.241 93.2335 96.7942C100.478 95.4478 102.948 96.5083 106.373 107.493L106.389 107.49Z" fill="#D37454"/>
<path fill-rule="evenodd" clip-rule="evenodd" d="M125.301 9.56052C118.263 -0.444364 105.921 0.513432 94.9476 0.746503C72.8092 1.20046 46.4931 5.49893 29.0549 20.0955C13.3371 35.9695 12.6982 49.7834 27.9796 66.116C33.8997 72.4445 32.9833 72.3607 35.2591 80.2738C35.2815 80.3957 35.3345 80.5128 35.3875 80.6292C35.371 80.7108 35.3391 80.7959 35.3254 80.8926C33.7381 89.2005 43.6784 79.9893 44.1112 79.4209C54.0973 66.5877 63.8179 60.0523 79.0968 57.1031L81.6807 56.6284C97.0216 53.8415 109.285 52.8033 120.952 41.287C128.441 33.3625 131.997 19.0761 125.283 9.54806L125.301 9.56052ZM112.624 40.608C105.725 46.6724 95.1708 48.1539 86.4388 49.6634C70.3104 52.5478 48.0156 56.4545 38.8992 71.5262C37.6427 69.0743 35.7697 66.2787 33.0482 63.1652C21.318 49.7303 20.1211 40.8929 31.6187 26.3937C45.4741 11.8243 70.2539 9.05476 89.1732 7.4249C99.5661 6.52535 115.69 4.131 121.167 15.2748C125.729 24.5353 119.309 34.7563 112.612 40.626L112.624 40.608Z" fill="#424035"/>
<path fill-rule="evenodd" clip-rule="evenodd" d="M30.9669 88.0525C29.9485 90.3383 28.6185 92.4757 27.585 94.7649C26.1592 97.9301 21.3044 96.2815 22.456 92.9141C23.4373 90.083 25.3202 87.6856 27.4024 85.5986C28.9669 84.0487 31.8437 86.0295 30.9488 88.0403L30.9669 88.0525Z" fill="#FFFCF6"/>
<path fill-rule="evenodd" clip-rule="evenodd" d="M48.8289 89.2675C47.1099 92.4709 47.2491 96.1535 46.174 99.5073C45.5127 101.585 42.0797 101.396 41.8412 99.1513C41.4401 95.0752 43.2539 90.3233 45.7321 87.1227C47.2389 85.1731 49.9573 87.1512 48.8261 89.2526L48.8289 89.2675Z" fill="#FFFCF6"/>
<path fill-rule="evenodd" clip-rule="evenodd" d="M70.3751 83.9523C70.6473 85.0067 70.8788 86.1795 71.2375 87.1863C71.7861 88.711 70.5466 90.5639 68.7952 89.892C66.4644 88.9942 65.9614 87.1148 65.7116 84.8093C65.3733 81.7632 69.6113 81.0001 70.39 83.9496L70.3751 83.9523Z" fill="#FFFCF6"/>
<path fill-rule="evenodd" clip-rule="evenodd" d="M96.4662 25.6983C94.7018 23.9238 92.7142 22.3955 90.9165 20.6113C88.4612 18.1748 84.507 21.426 86.7805 24.1642C88.7035 26.4617 91.3133 28.0179 94.0041 29.2434C96.0169 30.1359 98.0018 27.2623 96.4505 25.7011L96.4662 25.6983Z" fill="#424035"/>
<path fill-rule="evenodd" clip-rule="evenodd" d="M112.729 18.2132C109.984 15.83 108.805 12.3385 106.606 9.57094C105.251 7.87886 102.107 9.26129 102.682 11.4437C103.741 15.3991 107.14 19.1927 110.592 21.2885C112.693 22.575 114.531 19.76 112.727 18.198L112.729 18.2132Z" fill="#424035"/>
<path fill-rule="evenodd" clip-rule="evenodd" d="M97.9447 16.9695C98.8684 17.5255 99.8513 18.2286 100.823 18.6971C102.281 19.4076 102.669 21.6084 100.938 22.3368C98.6356 23.312 96.9631 22.2939 95.1756 20.8234C92.8074 18.86 95.3294 15.3828 97.9447 16.9695Z" fill="#424035"/>
</g>
</svg>
