<svg width="173" height="140" viewBox="0 0 173 140" fill="none" xmlns="http://www.w3.org/2000/svg">
<mask id="mask0_283_1647" style="mask-type:luminance" maskUnits="userSpaceOnUse" x="-15" y="-10" width="201" height="176">
<path d="M185.725 45.3287L26.5189 -9.44434L-14.6913 110.339L144.515 165.112L185.725 45.3287Z" fill="white"/>
</mask>
<g mask="url(#mask0_283_1647)">
<path fill-rule="evenodd" clip-rule="evenodd" d="M149.5 91.0221C149.5 91.0221 149.065 40.818 73.2149 43.7474C-60.7442 48.8845 19.6817 114.233 89.9984 121.18C124.803 124.628 149.388 104.635 149.5 91.0221Z" fill="#E6B6AF"/>
<path fill-rule="evenodd" clip-rule="evenodd" d="M171.209 85.9672C172.146 83.9292 171.868 81.1968 169.586 77.7109C155.709 56.5848 137.004 42.4736 116.636 28.1088C112.428 25.13 108.345 22.4071 104.02 19.6433C81.6795 5.98214 57.6919 0.770216 51.6051 33.5486C41.7241 86.6679 122.733 89.9149 158.95 90.0632C161.532 90.5683 164.329 90.4465 166.646 89.6704C170.323 88.9793 172.008 87.4961 171.216 86.0113L171.209 85.9672ZM72.8308 16.8018C104.02 18.1547 139.135 52.7327 157.488 76.1852C158.751 77.7895 157.469 79.9638 155.946 81.9705C155.716 81.9553 155.531 81.9336 155.314 81.9441C129.355 81.2209 109.05 80.8272 94.3438 75.8316C41.8655 57.947 53.7999 17.4841 72.8308 16.8018Z" fill="#D37454"/>
<path fill-rule="evenodd" clip-rule="evenodd" d="M44.1379 30.1714C41.8061 27.2641 39.051 24.5939 36.4361 21.9507C33.872 19.3461 31.5587 16.509 28.5305 14.4464C25.1212 12.1253 21.4717 15.7178 23.4349 19.2001C26.9332 25.4219 33.8344 31.6236 40.1014 35.013C42.968 36.552 46.1154 32.6805 44.1188 30.1649L44.1379 30.1714Z" fill="#D37454"/>
<path fill-rule="evenodd" clip-rule="evenodd" d="M28.9279 38.2494C24.8312 35.6917 20.7676 32.9753 16.4571 30.7907C15.2364 30.1793 13.3885 30.5217 12.5874 31.6707C12.4451 31.8982 12.258 32.1315 12.1539 32.3721C11.3736 34.0812 12.1893 35.8078 13.7271 36.6771C17.9149 39.0322 22.394 40.9133 26.7764 42.8889C29.8737 44.316 31.6527 39.9523 28.9214 38.2684L28.9279 38.2494Z" fill="#D37454"/>
<path fill-rule="evenodd" clip-rule="evenodd" d="M115.338 97.8115C124.927 104.831 145.569 105.426 126.68 98.1843C122.696 96.6642 111.564 89.4117 115.338 97.8115Z" fill="#FFFCF6"/>
<path fill-rule="evenodd" clip-rule="evenodd" d="M108.187 103.325C116.321 106.379 119.755 104.966 110.542 99.585C109.582 99.0214 102.032 94.0843 102.664 98.7672C102.953 100.972 106.361 102.612 108.168 103.319L108.187 103.325Z" fill="#FFFCF6"/>
<path fill-rule="evenodd" clip-rule="evenodd" d="M97.6791 104.069C91.917 98.2804 87.4313 103.436 95.1007 106.287C97.2077 107.054 98.7839 106.384 97.6791 104.069Z" fill="#FFFCF6"/>
<path fill-rule="evenodd" clip-rule="evenodd" d="M70.8961 63.2143C62.05 52.0482 49.0192 35.1046 60.7023 21.1987C78.7043 -0.208309 138.839 49.059 109.546 52.4409C100.912 53.4469 77.5385 46.6386 81.5592 36.7521C84.387 29.8362 96.5036 37.6409 99.6232 41.0531C98.358 42.7441 91.7894 37.1886 86.0778 39.2636C85.8405 49.4523 119.554 51.9079 103.667 36.8096C95.4766 29.0161 73.9091 22.9782 74.8543 38.4218C76.3953 63.6816 140.991 68.3202 119.668 34.9999C107.649 16.1716 55.2501 -7.40557 51.315 31.5354C49.9374 45.2868 58.9196 61.5818 68.3154 71.0871C75.8557 78.7212 79.4499 74.1738 70.8889 63.2333L70.8961 63.2143Z" fill="#D37454"/>
<path fill-rule="evenodd" clip-rule="evenodd" d="M51.6723 18.4531C51.5523 13.6487 51.5797 8.78872 51.0254 4.00508C50.8706 2.65472 49.5667 1.29185 48.1497 1.25088C47.8688 1.2605 47.5817 1.22555 47.3067 1.27982C45.4529 1.57759 44.45 3.18884 44.5886 4.95883C44.9257 9.75289 45.8378 14.4895 46.5841 19.2116C47.1117 22.5828 51.7415 21.6664 51.6466 18.4655L51.6723 18.4531Z" fill="#D37454"/>
<path fill-rule="evenodd" clip-rule="evenodd" d="M76.0995 131.963C76.8411 131.113 77.2676 130.43 77.634 129.366C78.2033 127.712 77.5017 126.088 75.8991 125.345C73.7047 124.336 70.8489 124.628 68.5495 125.475C66.2814 125.736 64.2982 126.968 63.3332 129.4C61.997 132.725 63.6695 136.618 67.0166 137.939C71.4326 139.693 75.8622 136.007 76.1187 131.97L76.0995 131.963Z" fill="#424035"/>
<path fill-rule="evenodd" clip-rule="evenodd" d="M28.5155 122.951C28.3138 121.86 28.3512 121.192 28.711 120.147C28.6304 120.63 28.5433 121.131 28.4627 121.614C28.3905 121.079 28.3947 120.569 28.514 120.037C28.8469 118.386 30.4039 117.71 31.9126 118.229C32.7529 118.518 33.2082 119.057 33.784 119.681C33.3845 119.352 32.985 119.023 32.5855 118.694C32.681 118.727 34.0927 119.405 33.6851 119.285C36.4871 120.143 36.3514 124.201 34.2775 125.634C31.844 127.306 28.9981 125.583 28.522 122.931L28.5155 122.951Z" fill="#424035"/>
<path fill-rule="evenodd" clip-rule="evenodd" d="M10.9612 97.9224C10.8028 95.4651 7.67767 94.3042 5.77716 95.607C4.01133 96.828 3.8922 99.6574 5.5671 100.935C6.59557 102.416 8.58155 102.355 9.69428 101.356C10.9375 100.785 11.6775 99.3166 10.9868 97.9096L10.9612 97.9224Z" fill="#424035"/>
<path fill-rule="evenodd" clip-rule="evenodd" d="M21.0029 111.137C20.9408 111.69 20.8281 112.204 20.5941 112.698C19.737 114.444 17.3538 114.666 16.1923 113.075C15.8767 112.627 15.6573 112.147 15.4956 111.624C14.0576 107.174 21.6157 106.5 21.0219 111.144L21.0029 111.137Z" fill="#424035"/>
<path fill-rule="evenodd" clip-rule="evenodd" d="M47.5092 131.377C46.2595 130.415 45.6846 129.664 45.0518 128.213C45.4236 128.809 45.8144 129.412 46.1862 130.007C45.5967 129.486 45.135 128.965 44.7256 128.293C43.5104 126.237 44.518 124.054 46.5938 123.173C47.7405 122.696 48.7417 122.827 49.9601 122.949C49.2257 122.973 48.4848 123.016 47.7505 123.04C47.8786 122.977 50.0096 122.37 49.4586 122.606C53.195 120.873 56.9508 125.29 56.1367 128.774C55.1837 132.847 50.5479 133.72 47.5217 131.403L47.5092 131.377Z" fill="#424035"/>
<path fill-rule="evenodd" clip-rule="evenodd" d="M87.6998 133.509C86.4499 132.548 85.8687 131.816 85.2425 130.346C85.6145 130.942 86.005 131.544 86.377 132.14C85.7877 131.618 85.3066 131.091 84.9098 130.444C83.6944 128.388 84.7021 126.205 86.7778 125.324C87.9307 124.828 88.9257 124.979 90.1443 125.1C89.4099 125.125 88.6755 125.148 87.9411 125.172C88.0815 125.135 90.2004 124.503 89.6424 124.758C93.3857 123.005 97.1347 127.442 96.3273 130.907C95.3741 134.98 90.7384 135.852 87.6998 133.509Z" fill="#424035"/>
</g>
</svg>
