<svg width="79" height="94" viewBox="0 0 79 94" fill="none" xmlns="http://www.w3.org/2000/svg">
<path d="M59.4724 82.8356C59.7417 83.5146 59.6608 83.6278 59.4883 84.3516C55.7068 84.6555 50.7695 85.0451 47.0703 84.3739C46.4161 83.7107 46.5143 83.3554 46.4082 82.4553C49.3803 82.2974 57.0933 81.7105 59.4724 82.8356ZM78.5578 93.7683C67.326 94.1104 55.9536 93.7946 44.7098 93.7959L15.328 93.8301C10.7796 93.8328 5.59296 94.321 1.11484 93.6301C0.735359 93.5722 0.818944 93.6248 0.544286 93.1511C-1.15408 90.2298 1.58454 74.5769 2.46955 71.345C4.75173 62.9955 9.7208 53.6814 18.9371 51.5576C22.4519 50.747 25.9654 50.5811 29.1512 48.7415L29.4749 48.5507L30.4475 45.6399C27.5139 43.1028 25.5567 40.3078 23.5598 37.0364C21.3997 36.3258 19.4864 35.6244 17.7854 34.0427C16.2688 32.6346 15.2617 30.6358 15.2418 28.5553C15.2139 25.6761 16.7916 23.6443 18.7686 21.752C18.3599 16.2896 18.9596 11.2786 22.5395 6.87291C25.972 2.64749 30.624 0.728889 35.954 0.140674C37.3737 -0.0106571 38.7828 -0.0264517 40.2091 0.0301328C45.8138 0.253839 51.2525 2.40537 55.0513 6.57946C58.9655 10.8799 59.8863 16.1909 59.617 21.7981C61.6577 23.5324 63.1504 25.201 63.4105 27.975C63.6201 30.2147 62.8797 32.5136 61.3392 34.173C59.4166 36.2429 57.299 36.6035 54.6227 36.6666C52.6802 40.2907 50.3914 43.3331 47.5612 46.3255L48.6174 48.6494C57.5139 53.0945 63.5697 49.1507 70.793 58.7622C77.3278 67.4552 80.1699 83.1133 78.5578 93.7683ZM42.5537 56.6817C43.5993 57.6608 44.6249 58.7017 45.7607 59.5768L46.3445 59.7715C48.0827 58.824 49.8792 54.1236 50.6435 52.3195C49.8195 51.7115 49.0075 51.0746 48.145 50.5219C46.6576 52.913 44.9911 55.1553 42.5537 56.6817ZM33.6704 61.8796C33.6824 62.6428 33.6784 62.6718 34.1468 63.2745L34.4307 63.3034C34.6284 62.4099 34.5754 61.673 35.3171 61.1006L36.0959 61.3111L38.5572 62.3665C40.0168 61.602 41.394 60.9216 42.9677 60.4137C41.5891 59.1609 40.4719 57.9332 38.5718 57.5621C36.9146 58.7754 34.6324 60.0255 33.6704 61.8796ZM42.4197 54.5921C43.1415 54.1328 43.6616 53.5551 44.1831 52.8906C45.0933 51.4089 46.1136 49.8442 46.1773 48.0585L45.8921 47.4492C44.9991 47.2584 44.1725 47.6611 43.3034 47.894C39.1915 48.9981 35.9579 48.5309 32.0875 46.8321C31.639 48.4849 31.3445 49.4968 32.2202 51.0667C33.3825 53.1498 35.3423 54.6776 37.6735 55.2671C39.2552 55.6672 41.0331 55.475 42.4197 54.5921ZM57.7886 23.8864C57.2499 23.7759 56.6793 23.768 56.1313 23.7469L55.992 23.7404C55.866 25.2366 55.6417 26.1485 56.6966 27.3999C56.877 27.6131 57.0628 27.821 57.2446 28.0329C57.5206 28.3513 57.6931 28.5948 57.8655 28.9738C57.4529 29.7712 56.8425 29.8975 56.0345 30.2252C55.9177 31.1661 55.8103 32.0833 55.5834 33.0044C55.448 33.5545 55.444 33.815 55.6802 34.3545C56.4259 34.644 56.889 34.4309 57.6652 34.2795C59.3675 33.2505 60.506 31.9346 61.0327 29.987C61.4122 28.5803 61.3167 27.0236 60.5073 25.7787C59.9076 24.8576 58.8819 24.1101 57.7886 23.8864ZM22.7717 34.4572C22.7067 33.4295 22.2808 30.1173 21.7115 29.3304L20.6249 29.1317C20.4179 28.5737 20.4125 28.5185 20.7005 27.9552C21.34 26.7064 22.4055 25.8958 22.7252 24.4733C22.6178 24.1088 22.6589 23.8588 22.2861 23.6732C21.7381 23.4009 21.1595 23.4851 20.5678 23.514C18.9875 24.7181 17.6872 25.9866 17.4483 28.05C17.2798 29.5107 17.8133 30.9055 18.7354 32.0306C19.7332 33.2466 20.9804 33.9085 22.3843 34.573L22.7717 34.4572ZM27.559 17.1397C30.4688 14.9711 34.172 14.4868 36.5921 11.551C36.2618 10.0061 35.5612 7.6572 36.4104 6.19916C38.1393 7.10846 38.7098 11.0154 39.8668 12.7222C44.5732 17.5108 53.2309 18.1214 53.7616 18.7254C54.433 19.4899 54.295 20.469 54.7673 21.2546C54.904 21.4822 55.318 21.7665 55.59 21.7625C56.1433 21.7559 57.0376 21.3822 57.368 20.9296C58.2105 19.7715 57.6466 17.8003 57.3494 16.5081C56.3065 11.9458 54.3481 8.03749 50.2587 5.43855C50.1963 5.39776 50.1313 5.36093 50.0676 5.32145C50.073 6.9703 50.463 9.76266 49.3604 11.097C48.624 11.247 48.628 11.1878 47.9593 10.822C47.5294 8.57834 47.9155 6.18205 47.6966 3.8963C44.6966 2.31983 40.9562 1.92243 37.5926 2.05665C32.2799 2.56854 27.7089 4.0121 24.2405 8.30331C22.0605 11.0009 20.3077 15.5106 20.654 19.0175C20.727 19.765 20.9539 20.6229 21.5603 21.1217C22.0538 21.5283 22.5859 21.5954 23.1883 21.4454C24.5324 21.1098 26.317 18.0661 27.559 17.1397ZM44.4869 18.5069C41.9898 17.3766 40.0765 15.7159 37.996 14.0065C34.2848 16.312 29.6846 17.7727 26.731 21.0611L41.406 21.1217C43.7903 21.1427 49.6165 21.6888 51.6068 20.6703C50.4432 19.7373 46.318 19.3347 44.4869 18.5069ZM35.4113 45.7596C38.2985 46.8123 41.2613 46.665 44.0318 45.3398C45.6625 44.5595 47.1154 43.4291 48.3998 42.1737C52.6576 37.0443 54.4463 31.6596 53.759 25.0036C53.7072 24.4891 53.6342 23.9772 53.5546 23.4666C44.1764 23.0245 34.7027 23.3206 25.3099 23.26C23.6355 27.8592 24.1105 32.4833 26.1578 36.9009C27.9889 40.8473 31.2463 44.2437 35.4113 45.7596ZM27.2458 52.3247C28.2211 54.6526 29.7111 58.1016 31.7014 59.6978C32.2879 59.632 32.3476 59.607 32.8027 59.2938L35.4365 56.8054C33.7195 55.7066 32.4245 54.467 31.0897 52.9419C30.746 52.5497 30.2538 51.7839 29.8571 51.4931C29.6885 51.3707 29.4524 51.3918 29.2494 51.3417C28.5515 51.5931 27.6824 51.722 27.2458 52.3247ZM21.0375 53.5183C21.7872 58.5082 32.9685 69.9396 37.0473 73.7242L37.8341 74.1216L38.183 73.9703C38.402 72.7873 37.233 71.3411 36.5816 70.4015C34.5568 67.4828 32.2826 64.7365 30.2432 61.8257C28.4201 59.2254 26.674 54.6329 24.1755 52.7932L23.3821 52.8195C22.6005 52.9551 21.6505 52.9827 21.0375 53.5183ZM38.2109 91.626L38.2003 77.3351C32.6766 73.2965 27.5351 67.617 23.4444 62.1678C22.164 60.4624 19.6231 54.6658 18.4209 53.8104C11.8 56.8712 8.16573 61.4901 5.70044 68.2487C2.98571 75.6928 2.33819 83.7344 2.43372 91.597C6.33864 91.7062 10.2343 91.6891 14.1392 91.6444C14.1657 88.3309 13.5779 71.7043 15.0096 70.3055C15.2909 70.0291 15.5218 70.1502 15.8827 70.1699C16.8221 71.3911 16.4015 74.9441 16.3895 76.5639L16.3763 91.6141L38.2109 91.626ZM39.4834 70.8226L42.9013 65.5576C41.6275 64.5259 40.6497 63.6535 38.9646 63.4692L38.7098 63.5719C38.5546 63.6206 38.4006 63.6745 38.2454 63.7219C37.6828 63.893 37.3285 63.8351 36.7593 63.6903C36.0906 63.9956 36.1118 63.9969 35.8 64.6615C36.0972 66.6748 38.1034 69.2922 39.4834 70.8226ZM40.0751 74.3782L43.0619 71.8411C48.8045 66.1748 53.6661 60.4295 57.4914 53.3025L52.8421 52.4919C50.7682 57.8779 47.5042 62.552 44.3091 67.3209C42.7992 69.5764 41.1074 71.8609 40.0751 74.3782ZM76.7135 91.5707C76.7042 80.417 75.5896 66.0603 67.0527 57.745C64.9854 55.7316 62.613 54.446 59.7961 53.7525C54.6625 63.0403 48.3308 70.0988 40.2649 76.9824C40.2463 81.8579 40.18 86.7373 40.2848 91.6115C47.7377 91.7365 55.2264 91.7615 62.678 91.6115L62.6727 72.3912C62.6449 70.8489 62.2548 68.1105 63.3375 66.8854C64.0566 66.7906 63.9982 66.9156 64.5648 67.3025C65.3357 69.6422 64.8474 87.6058 64.8487 91.6049L76.7135 91.5707ZM59.4724 82.8356C57.0933 81.7105 49.3803 82.2974 46.4082 82.4553C46.5143 83.3554 46.4161 83.7107 47.0703 84.3739C50.7695 85.0451 55.7068 84.6555 59.4883 84.3516C59.6608 83.6278 59.7417 83.5146 59.4724 82.8356ZM59.4724 82.8356C57.0933 81.7105 49.3803 82.2974 46.4082 82.4553C46.5143 83.3554 46.4161 83.7107 47.0703 84.3739C50.7695 85.0451 55.7068 84.6555 59.4883 84.3516C59.6608 83.6278 59.7417 83.5146 59.4724 82.8356Z" fill="#0060D0"/>
</svg>
