<svg width="90" height="17" viewBox="0 0 90 17" fill="none" xmlns="http://www.w3.org/2000/svg">
<g clip-path="url(#clip0_1_611)">
<path d="M4.35331 16.4334C4.12664 16.509 3.92831 16.4806 3.75831 16.3484C3.58831 16.2162 3.5222 16.0178 3.55998 15.7534L4.40998 10.7667L0.669975 7.19673C0.518864 7.00784 0.471642 6.80006 0.528309 6.5734C0.584975 6.34673 0.745531 6.21451 1.00998 6.17673L6.16664 5.44006L8.48997 0.850064C8.60331 0.623397 8.77331 0.510064 8.99998 0.510064C9.22664 0.510064 9.39664 0.623397 9.50998 0.850064L11.8333 5.44006L17.0466 6.17673C17.2733 6.21451 17.415 6.34673 17.4716 6.5734C17.5283 6.80006 17.4811 7.00784 17.33 7.19673L13.59 10.7667L14.44 15.7534C14.4778 16.0178 14.4116 16.2162 14.2416 16.3484C14.0716 16.4806 13.8733 16.509 13.6466 16.4334L8.99998 13.9967L4.35331 16.4334Z" fill="#FD961E"/>
</g>
<g clip-path="url(#clip1_1_611)">
<path d="M22.3533 16.4334C22.1266 16.509 21.9283 16.4806 21.7583 16.3484C21.5883 16.2162 21.5222 16.0178 21.56 15.7534L22.41 10.7667L18.67 7.19673C18.5189 7.00784 18.4716 6.80006 18.5283 6.5734C18.585 6.34673 18.7455 6.21451 19.01 6.17673L24.1666 5.44006L26.49 0.850064C26.6033 0.623397 26.7733 0.510064 27 0.510064C27.2266 0.510064 27.3966 0.623397 27.51 0.850064L29.8333 5.44006L35.0466 6.17673C35.2733 6.21451 35.415 6.34673 35.4716 6.5734C35.5283 6.80006 35.4811 7.00784 35.33 7.19673L31.59 10.7667L32.44 15.7534C32.4778 16.0178 32.4116 16.2162 32.2416 16.3484C32.0716 16.4806 31.8733 16.509 31.6466 16.4334L27 13.9967L22.3533 16.4334Z" fill="#FD961E"/>
</g>
<g clip-path="url(#clip2_1_611)">
<path d="M40.3533 16.4334C40.1266 16.509 39.9283 16.4806 39.7583 16.3484C39.5883 16.2162 39.5222 16.0178 39.56 15.7534L40.41 10.7667L36.67 7.19673C36.5189 7.00784 36.4716 6.80006 36.5283 6.5734C36.585 6.34673 36.7455 6.21451 37.01 6.17673L42.1666 5.44006L44.49 0.850064C44.6033 0.623397 44.7733 0.510064 45 0.510064C45.2266 0.510064 45.3966 0.623397 45.51 0.850064L47.8333 5.44006L53.0466 6.17673C53.2733 6.21451 53.415 6.34673 53.4716 6.5734C53.5283 6.80006 53.4811 7.00784 53.33 7.19673L49.59 10.7667L50.44 15.7534C50.4778 16.0178 50.4116 16.2162 50.2416 16.3484C50.0716 16.4806 49.8733 16.509 49.6466 16.4334L45 13.9967L40.3533 16.4334Z" fill="#FD961E"/>
</g>
<g clip-path="url(#clip3_1_611)">
<path d="M58.3533 16.4334C58.1266 16.509 57.9283 16.4806 57.7583 16.3484C57.5883 16.2162 57.5222 16.0178 57.56 15.7534L58.41 10.7667L54.67 7.19673C54.5189 7.00784 54.4716 6.80006 54.5283 6.5734C54.585 6.34673 54.7455 6.21451 55.01 6.17673L60.1666 5.44006L62.49 0.850064C62.6033 0.623397 62.7733 0.510064 63 0.510064C63.2266 0.510064 63.3966 0.623397 63.51 0.850064L65.8333 5.44006L71.0466 6.17673C71.2733 6.21451 71.415 6.34673 71.4716 6.5734C71.5283 6.80006 71.4811 7.00784 71.33 7.19673L67.59 10.7667L68.44 15.7534C68.4778 16.0178 68.4116 16.2162 68.2416 16.3484C68.0716 16.4806 67.8733 16.509 67.6466 16.4334L63 13.9967L58.3533 16.4334Z" fill="#FD961E"/>
</g>
<g clip-path="url(#clip4_1_611)">
<path d="M76.3533 16.4334C76.1266 16.509 75.9283 16.4806 75.7583 16.3484C75.5883 16.2162 75.5222 16.0178 75.56 15.7534L76.41 10.7667L72.67 7.19673C72.5189 7.00784 72.4716 6.80006 72.5283 6.5734C72.585 6.34673 72.7455 6.21451 73.01 6.17673L78.1666 5.44006L80.49 0.850064C80.6033 0.623397 80.7733 0.510064 81 0.510064C81.2266 0.510064 81.3966 0.623397 81.51 0.850064L83.8333 5.44006L89.0466 6.17673C89.2733 6.21451 89.415 6.34673 89.4716 6.5734C89.5283 6.80006 89.4811 7.00784 89.33 7.19673L85.59 10.7667L86.44 15.7534C86.4778 16.0178 86.4116 16.2162 86.2416 16.3484C86.0716 16.4806 85.8733 16.509 85.6466 16.4334L81 13.9967L76.3533 16.4334Z" fill="#FD961E"/>
</g>
<defs>
<clipPath id="clip0_1_611">
<rect width="18" height="17" fill="white" transform="matrix(1 0 0 -1 0 17)"/>
</clipPath>
<clipPath id="clip1_1_611">
<rect width="18" height="17" fill="white" transform="matrix(1 0 0 -1 18 17)"/>
</clipPath>
<clipPath id="clip2_1_611">
<rect width="18" height="17" fill="white" transform="matrix(1 0 0 -1 36 17)"/>
</clipPath>
<clipPath id="clip3_1_611">
<rect width="18" height="17" fill="white" transform="matrix(1 0 0 -1 54 17)"/>
</clipPath>
<clipPath id="clip4_1_611">
<rect width="18" height="17" fill="white" transform="matrix(1 0 0 -1 72 17)"/>
</clipPath>
</defs>
</svg>
