<svg width="18" height="16" viewBox="0 0 18 16" fill="none" xmlns="http://www.w3.org/2000/svg">
<path d="M13.2043 15.7391H4.79572C1.74223 15.7391 0 13.9877 0 10.9434V5.05646C0 2.01214 1.7514 0.260742 4.79572 0.260742H13.2043C16.2578 0.260742 18 2.01214 18 5.05646V10.9434C18 13.9969 16.2486 15.7391 13.2043 15.7391ZM4.79572 1.4528C2.40245 1.4528 1.19205 2.66319 1.19205 5.05646V10.9434C1.19205 13.3366 2.40245 14.547 4.79572 14.547H13.2043C15.5976 14.547 16.8079 13.3366 16.8079 10.9434V5.05646C16.8079 2.66319 15.5976 1.4528 13.2043 1.4528H4.79572Z" fill="#B7B5B1"/>
</svg>
