<svg width="99" height="77" viewBox="0 0 99 77" fill="none" xmlns="http://www.w3.org/2000/svg">
<path d="M98.8019 51.114L98.5952 27.2354C97.0708 25.2545 95.0974 20.1641 93.5306 19.009C92.3929 20.9157 90.8883 25.7388 88.985 26.5791C88.8049 27.1203 88.5851 61.4682 88.8341 62.9726C89.2552 65.5198 90.7638 68.1874 91.9147 70.4779C92.5213 71.6834 93.0736 73.0635 94.0418 74.0162C95.9543 72.5117 98.3952 65.6733 98.7409 63.1394C99.2627 59.3074 98.8416 54.9818 98.8019 51.114ZM96.2854 28.6909C96.6708 28.9265 96.6072 29.6979 96.6562 30.1253C95.1517 30.1067 92.4498 30.7339 91.2061 29.8739C90.8446 29.6238 90.9148 28.8682 90.8724 28.4461C92.3756 28.4779 94.9795 27.8957 96.2854 28.6909ZM94.7597 68.4812C94.659 68.7802 94.459 69.1282 94.3212 69.4141L93.8988 69.2804C92.7809 67.8818 92.1161 65.9909 91.3863 64.3528C93.0286 64.3144 94.6762 64.3263 96.3185 64.317L94.7597 68.4812ZM96.6218 61.9855L96.153 62.2449L90.9333 62.2383L90.9399 48.5999C90.9426 46.0978 90.7757 43.4579 91.0843 40.9835L91.5386 40.6647L96.7159 40.6514L96.7675 54.4684C96.7741 56.8965 97.0085 59.5932 96.6218 61.9855ZM96.6549 38.5912C94.9795 38.5673 93.0193 39.0305 91.4591 38.3795C90.875 37.6199 91.0366 37.1224 91.0326 36.1816C92.6352 36.1498 94.6762 35.7555 96.1543 36.3404C96.8086 37.1356 96.6417 37.5842 96.6549 38.5912ZM91.1969 33.7257C90.8234 33.4929 90.7956 32.724 90.7028 32.3059C92.3279 32.2265 94.9477 31.6801 96.394 32.5269C96.7874 32.7571 96.8417 33.5286 96.9529 33.9586C95.3278 33.9811 92.5942 34.5991 91.1969 33.7257ZM50.0025 11.0128C49.58 10.338 49.6754 10.0918 49.7058 9.3138C53.103 9.27542 69.0203 8.58074 71.0957 9.55463C71.4891 10.1792 71.3858 10.334 71.3142 11.0816C67.8031 11.4627 53.1679 11.6863 50.0025 11.0128ZM71.3897 51.1736C71.7831 51.863 71.6109 51.8683 71.4215 52.5974C68.6415 52.813 51.6766 53.2365 50.1005 52.3724C49.9124 51.6645 49.9456 51.511 50.1283 50.7938C53.8646 50.7197 68.8905 50.115 71.3897 51.1736ZM50.0105 19.3676C49.5429 18.8198 49.6436 18.4427 49.5906 17.748C53.7971 17.5204 67.6853 17.1102 71.2546 17.8432C71.7209 18.4731 71.5897 18.7814 71.5897 19.5343C67.713 19.7368 63.7503 19.5727 59.8644 19.574C56.6751 19.5753 53.1494 19.8836 50.0105 19.3676ZM71.5884 26.5605C71.7421 27.2711 71.5977 27.3386 71.3301 27.9856C67.8587 28.1921 52.3282 28.6605 49.8846 27.7104C49.6224 26.9998 49.7019 26.841 49.8635 26.0881C52.9666 26.0709 70.0653 25.5562 71.5884 26.5605ZM71.8083 44.3564C68.3435 44.7997 64.6152 44.5681 61.1239 44.5747C57.5929 44.5814 53.9123 44.8023 50.3998 44.4318C49.7985 43.9515 49.8052 43.4209 49.6038 42.6997C52.9547 42.3835 56.532 42.619 59.9067 42.619C63.6284 42.6177 67.5382 42.3332 71.2215 42.7752C71.803 43.2859 71.7076 43.6061 71.8083 44.3564ZM71.244 34.6599C71.4493 34.7697 71.5977 34.9616 71.7751 35.1111L71.8268 36.2068C68.3938 36.6858 53.6434 36.7254 50.18 36.2848C49.6158 35.61 49.686 35.3599 49.6131 34.5051C52.0104 34.3754 70.1712 34.0843 71.244 34.6599ZM35.7567 9.46731C33.4284 8.67867 17.1548 9.24632 13.3974 9.25161C13.4106 10.0072 13.3126 10.4465 13.7258 11.0922C16.2039 11.5064 18.9415 11.2722 21.4567 11.2735L35.872 11.2867C35.9726 10.5007 36.0971 10.199 35.7567 9.46731ZM36.023 26.4481C34.5237 25.4226 16.6145 25.8923 13.4556 25.9717C13.3033 26.8424 13.1179 27.0276 13.6239 27.7858C16.1522 28.372 19.1879 28.0531 21.7957 28.0505L35.8216 28.0558C36.1064 27.3134 36.2335 27.1997 36.023 26.4481ZM35.9898 17.8975C32.8602 16.9104 21.0209 17.6302 16.9178 17.6051C15.547 17.5984 14.2503 17.4066 13.2159 18.4916C13.1404 18.571 13.0769 18.661 13.008 18.7456L13.0821 19.0897C15.4277 20.139 29.6828 19.6388 32.9754 19.6468C34.0654 19.6282 35.1899 19.8122 36.109 19.2101C36.2892 18.5022 36.3408 18.5273 35.9898 17.8975ZM36.2256 43.1245C35.0694 42.1083 16.9019 42.5767 13.8887 42.5634C13.5179 43.1562 13.4398 43.2859 13.4053 43.9767C14.2371 44.8142 15.984 44.5933 17.1336 44.5986L36.1104 44.6039C36.3713 43.9065 36.4004 43.8417 36.2256 43.1245ZM36.2335 34.8928C34.6455 33.7628 16.5787 34.2272 13.6358 34.3304C13.4133 35.0728 13.3033 35.2064 13.5457 35.9262C15.0344 36.8062 33.0827 36.3986 35.8627 36.2544C36.1805 35.6616 36.2958 35.5504 36.2335 34.8928ZM35.9766 50.8176C33.4284 50.3876 30.6589 50.6271 28.0749 50.6364L13.4133 50.692C13.4133 51.4687 13.2702 51.8775 13.7431 52.5272C16.535 52.9335 19.5746 52.6913 22.3997 52.6768C27.0869 52.653 31.7821 52.6913 36.4666 52.6C36.4044 51.8087 36.4918 51.4396 35.9766 50.8176ZM35.9766 50.8176C33.4284 50.3876 30.6589 50.6271 28.0749 50.6364L13.4133 50.692C13.4133 51.4687 13.2702 51.8775 13.7431 52.5272C16.535 52.9335 19.5746 52.6913 22.3997 52.6768C27.0869 52.653 31.7821 52.6913 36.4666 52.6C36.4044 51.8087 36.4918 51.4396 35.9766 50.8176ZM36.2335 34.8928C34.6455 33.7628 16.5787 34.2272 13.6358 34.3304C13.4133 35.0728 13.3033 35.2064 13.5457 35.9262C15.0344 36.8062 33.0827 36.3986 35.8627 36.2544C36.1805 35.6616 36.2958 35.5504 36.2335 34.8928ZM36.2256 43.1245C35.0694 42.1083 16.9019 42.5767 13.8887 42.5634C13.5179 43.1562 13.4398 43.2859 13.4053 43.9767C14.2371 44.8142 15.984 44.5933 17.1336 44.5986L36.1104 44.6039C36.3713 43.9065 36.4004 43.8417 36.2256 43.1245ZM35.9898 17.8975C32.8602 16.9104 21.0209 17.6302 16.9178 17.6051C15.547 17.5984 14.2503 17.4066 13.2159 18.4916C13.1404 18.571 13.0769 18.661 13.008 18.7456L13.0821 19.0897C15.4277 20.139 29.6828 19.6388 32.9754 19.6468C34.0654 19.6282 35.1899 19.8122 36.109 19.2101C36.2892 18.5022 36.3408 18.5273 35.9898 17.8975ZM36.023 26.4481C34.5237 25.4226 16.6145 25.8923 13.4556 25.9717C13.3033 26.8424 13.1179 27.0276 13.6239 27.7858C16.1522 28.372 19.1879 28.0531 21.7957 28.0505L35.8216 28.0558C36.1064 27.3134 36.2335 27.1997 36.023 26.4481ZM35.7567 9.46731C33.4284 8.67867 17.1548 9.24632 13.3974 9.25161C13.4106 10.0072 13.3126 10.4465 13.7258 11.0922C16.2039 11.5064 18.9415 11.2722 21.4567 11.2735L35.872 11.2867C35.9726 10.5007 36.0971 10.199 35.7567 9.46731ZM35.7567 9.46731C33.4284 8.67867 17.1548 9.24632 13.3974 9.25161C13.4106 10.0072 13.3126 10.4465 13.7258 11.0922C16.2039 11.5064 18.9415 11.2722 21.4567 11.2735L35.872 11.2867C35.9726 10.5007 36.0971 10.199 35.7567 9.46731ZM36.023 26.4481C34.5237 25.4226 16.6145 25.8923 13.4556 25.9717C13.3033 26.8424 13.1179 27.0276 13.6239 27.7858C16.1522 28.372 19.1879 28.0531 21.7957 28.0505L35.8216 28.0558C36.1064 27.3134 36.2335 27.1997 36.023 26.4481ZM35.9898 17.8975C32.8602 16.9104 21.0209 17.6302 16.9178 17.6051C15.547 17.5984 14.2503 17.4066 13.2159 18.4916C13.1404 18.571 13.0769 18.661 13.008 18.7456L13.0821 19.0897C15.4277 20.139 29.6828 19.6388 32.9754 19.6468C34.0654 19.6282 35.1899 19.8122 36.109 19.2101C36.2892 18.5022 36.3408 18.5273 35.9898 17.8975ZM36.2256 43.1245C35.0694 42.1083 16.9019 42.5767 13.8887 42.5634C13.5179 43.1562 13.4398 43.2859 13.4053 43.9767C14.2371 44.8142 15.984 44.5933 17.1336 44.5986L36.1104 44.6039C36.3713 43.9065 36.4004 43.8417 36.2256 43.1245ZM36.2335 34.8928C34.6455 33.7628 16.5787 34.2272 13.6358 34.3304C13.4133 35.0728 13.3033 35.2064 13.5457 35.9262C15.0344 36.8062 33.0827 36.3986 35.8627 36.2544C36.1805 35.6616 36.2958 35.5504 36.2335 34.8928ZM35.9766 50.8176C33.4284 50.3876 30.6589 50.6271 28.0749 50.6364L13.4133 50.692C13.4133 51.4687 13.2702 51.8775 13.7431 52.5272C16.535 52.9335 19.5746 52.6913 22.3997 52.6768C27.0869 52.653 31.7821 52.6913 36.4666 52.6C36.4044 51.8087 36.4918 51.4396 35.9766 50.8176ZM35.9766 50.8176C33.4284 50.3876 30.6589 50.6271 28.0749 50.6364L13.4133 50.692C13.4133 51.4687 13.2702 51.8775 13.7431 52.5272C16.535 52.9335 19.5746 52.6913 22.3997 52.6768C27.0869 52.653 31.7821 52.6913 36.4666 52.6C36.4044 51.8087 36.4918 51.4396 35.9766 50.8176ZM36.2335 34.8928C34.6455 33.7628 16.5787 34.2272 13.6358 34.3304C13.4133 35.0728 13.3033 35.2064 13.5457 35.9262C15.0344 36.8062 33.0827 36.3986 35.8627 36.2544C36.1805 35.6616 36.2958 35.5504 36.2335 34.8928ZM36.2256 43.1245C35.0694 42.1083 16.9019 42.5767 13.8887 42.5634C13.5179 43.1562 13.4398 43.2859 13.4053 43.9767C14.2371 44.8142 15.984 44.5933 17.1336 44.5986L36.1104 44.6039C36.3713 43.9065 36.4004 43.8417 36.2256 43.1245ZM35.9898 17.8975C32.8602 16.9104 21.0209 17.6302 16.9178 17.6051C15.547 17.5984 14.2503 17.4066 13.2159 18.4916C13.1404 18.571 13.0769 18.661 13.008 18.7456L13.0821 19.0897C15.4277 20.139 29.6828 19.6388 32.9754 19.6468C34.0654 19.6282 35.1899 19.8122 36.109 19.2101C36.2892 18.5022 36.3408 18.5273 35.9898 17.8975ZM36.023 26.4481C34.5237 25.4226 16.6145 25.8923 13.4556 25.9717C13.3033 26.8424 13.1179 27.0276 13.6239 27.7858C16.1522 28.372 19.1879 28.0531 21.7957 28.0505L35.8216 28.0558C36.1064 27.3134 36.2335 27.1997 36.023 26.4481ZM35.7567 9.46731C33.4284 8.67867 17.1548 9.24632 13.3974 9.25161C13.4106 10.0072 13.3126 10.4465 13.7258 11.0922C16.2039 11.5064 18.9415 11.2722 21.4567 11.2735L35.872 11.2867C35.9726 10.5007 36.0971 10.199 35.7567 9.46731ZM35.7567 9.46731C33.4284 8.67867 17.1548 9.24632 13.3974 9.25161C13.4106 10.0072 13.3126 10.4465 13.7258 11.0922C16.2039 11.5064 18.9415 11.2722 21.4567 11.2735L35.872 11.2867C35.9726 10.5007 36.0971 10.199 35.7567 9.46731ZM36.023 26.4481C34.5237 25.4226 16.6145 25.8923 13.4556 25.9717C13.3033 26.8424 13.1179 27.0276 13.6239 27.7858C16.1522 28.372 19.1879 28.0531 21.7957 28.0505L35.8216 28.0558C36.1064 27.3134 36.2335 27.1997 36.023 26.4481ZM35.9898 17.8975C32.8602 16.9104 21.0209 17.6302 16.9178 17.6051C15.547 17.5984 14.2503 17.4066 13.2159 18.4916C13.1404 18.571 13.0769 18.661 13.008 18.7456L13.0821 19.0897C15.4277 20.139 29.6828 19.6388 32.9754 19.6468C34.0654 19.6282 35.1899 19.8122 36.109 19.2101C36.2892 18.5022 36.3408 18.5273 35.9898 17.8975ZM36.2256 43.1245C35.0694 42.1083 16.9019 42.5767 13.8887 42.5634C13.5179 43.1562 13.4398 43.2859 13.4053 43.9767C14.2371 44.8142 15.984 44.5933 17.1336 44.5986L36.1104 44.6039C36.3713 43.9065 36.4004 43.8417 36.2256 43.1245ZM36.2335 34.8928C34.6455 33.7628 16.5787 34.2272 13.6358 34.3304C13.4133 35.0728 13.3033 35.2064 13.5457 35.9262C15.0344 36.8062 33.0827 36.3986 35.8627 36.2544C36.1805 35.6616 36.2958 35.5504 36.2335 34.8928ZM35.9766 50.8176C33.4284 50.3876 30.6589 50.6271 28.0749 50.6364L13.4133 50.692C13.4133 51.4687 13.2702 51.8775 13.7431 52.5272C16.535 52.9335 19.5746 52.6913 22.3997 52.6768C27.0869 52.653 31.7821 52.6913 36.4666 52.6C36.4044 51.8087 36.4918 51.4396 35.9766 50.8176ZM35.9766 50.8176C33.4284 50.3876 30.6589 50.6271 28.0749 50.6364L13.4133 50.692C13.4133 51.4687 13.2702 51.8775 13.7431 52.5272C16.535 52.9335 19.5746 52.6913 22.3997 52.6768C27.0869 52.653 31.7821 52.6913 36.4666 52.6C36.4044 51.8087 36.4918 51.4396 35.9766 50.8176ZM13.6358 34.3304C13.4133 35.0728 13.3033 35.2064 13.5457 35.9262C15.0344 36.8062 33.0827 36.3986 35.8627 36.2544C36.1805 35.6616 36.2958 35.5504 36.2335 34.8928C34.6455 33.7628 16.5787 34.2272 13.6358 34.3304ZM13.8887 42.5634C13.5179 43.1562 13.4398 43.2859 13.4053 43.9767C14.2371 44.8142 15.984 44.5933 17.1336 44.5986L36.1104 44.6039C36.3713 43.9065 36.4004 43.8417 36.2256 43.1245C35.0694 42.1083 16.9019 42.5767 13.8887 42.5634ZM32.9754 19.6468C34.0654 19.6282 35.1899 19.8122 36.109 19.2101C36.2892 18.5022 36.3408 18.5273 35.9898 17.8975C32.8602 16.9104 21.0209 17.6302 16.9178 17.6051C15.547 17.5984 14.2503 17.4066 13.2159 18.4916C13.1404 18.571 13.0769 18.661 13.008 18.7456L13.0821 19.0897C15.4277 20.139 29.6828 19.6388 32.9754 19.6468ZM21.7957 28.0505L35.8216 28.0558C36.1064 27.3134 36.2335 27.1997 36.023 26.4481C34.5237 25.4226 16.6145 25.8923 13.4556 25.9717C13.3033 26.8424 13.1179 27.0276 13.6239 27.7858C16.1522 28.372 19.1879 28.0531 21.7957 28.0505ZM13.7258 11.0922C16.2039 11.5064 18.9415 11.2722 21.4567 11.2735L35.872 11.2867C35.9726 10.5007 36.0971 10.199 35.7567 9.46731C33.4284 8.67867 17.1548 9.24632 13.3974 9.25161C13.4106 10.0072 13.3126 10.4465 13.7258 11.0922ZM84.6859 64.1821L84.6461 47.38L84.6157 20.6418C84.5998 15.2299 84.7097 9.75972 84.3945 4.35705C82.5668 4.3372 80.7403 4.31076 78.9126 4.34251L78.8225 0.362286C73.3685 -0.0545252 67.7594 0.153218 62.2841 0.1294C58.0022 0.110875 53.3798 -0.247727 49.1443 0.315961C46.5894 0.654703 44.2955 1.42219 41.9194 2.39078C40.199 1.4341 38.6692 0.833366 36.709 0.511826C32.3383 -0.204031 27.6326 0.104276 23.2063 0.113538C17.4065 0.125447 11.5908 0.0579632 5.7924 0.179699C5.34474 1.54922 5.34606 2.8486 5.32222 4.27106C3.82824 4.24327 2.24022 4.06464 0.816436 4.5701C0.187323 5.23965 0.252209 5.64983 0.208502 6.57078C-0.255055 16.3123 0.199253 26.2827 0.197929 36.0466C0.197929 48.7693 -0.162339 61.5992 0.213805 74.3113L0.229714 74.8022C7.90622 74.9901 15.6066 74.8392 23.287 74.818C27.165 74.8074 31.2523 74.5441 35.0932 75.0483C37.7659 75.3989 40.2731 76.1942 42.8333 77C57.8976 71.7058 63.0497 74.2186 77.9603 74.6288C79.6318 74.8048 83.1919 75.5577 84.5826 74.6394C84.9137 71.2057 84.7031 67.6304 84.6859 64.1821ZM43.6253 4.42189C46.053 2.99811 48.335 2.449 51.1084 2.2214C59.6564 2.12349 68.2879 2.08908 76.8292 2.35505C77.1603 9.99527 76.9206 17.7374 76.9339 25.3869L77.0027 67.1183L66.6456 66.5705C57.7558 65.8718 51.9653 66.5295 43.6147 69.8084C43.3604 48.0257 43.5538 26.2072 43.6253 4.42189ZM21.9321 2.16716C26.0128 2.16187 30.1914 1.97792 34.2575 2.30872C36.2071 2.46619 40.0956 2.82215 41.1499 4.70772C41.6519 5.60486 41.8028 64.8979 41.3697 69.3783L41.0095 69.6191C30.8973 64.7987 18.4316 66.6472 7.62144 67.502L7.43868 2.21213C12.2531 2.05202 17.1138 2.17246 21.9321 2.16716ZM52.3455 72.1491C49.0542 72.6797 45.9497 73.7211 42.8028 74.7836C40.5181 74.0294 38.2546 73.3466 35.864 73.0172C31.5423 72.4217 27.0048 72.6665 22.6487 72.7022C15.8781 72.7565 9.10749 72.865 2.3369 72.7909C2.14221 65.2393 2.3144 57.6401 2.31837 50.0819L2.36869 6.48743C3.34216 6.46626 4.3673 6.34187 5.26395 6.77191C5.63877 8.8692 5.42155 11.2854 5.42553 13.421L5.46394 25.2175L5.68909 69.6496C19.225 69.4829 29.5411 66.0968 42.5247 72.7155C56.1188 66.1695 64.7953 69.0674 78.9365 69.1322C79.5126 62.2899 79.1073 55.0956 79.1126 48.2215L79.0305 6.54432C80.1775 6.49272 81.4397 6.26118 82.4436 6.86324L82.5707 7.79081L82.6025 72.955C74.6134 72.0248 60.0816 70.9027 52.3455 72.1491ZM28.0749 50.6364L13.4133 50.692C13.4133 51.4687 13.2702 51.8775 13.7431 52.5272C16.535 52.9335 19.5746 52.6913 22.3997 52.6768C27.0869 52.653 31.7821 52.6913 36.4666 52.6C36.4044 51.8087 36.4918 51.4396 35.9766 50.8176C33.4284 50.3876 30.6589 50.6271 28.0749 50.6364ZM13.6358 34.3304C13.4133 35.0728 13.3033 35.2064 13.5457 35.9262C15.0344 36.8062 33.0827 36.3986 35.8627 36.2544C36.1805 35.6616 36.2958 35.5504 36.2335 34.8928C34.6455 33.7628 16.5787 34.2272 13.6358 34.3304ZM13.8887 42.5634C13.5179 43.1562 13.4398 43.2859 13.4053 43.9767C14.2371 44.8142 15.984 44.5933 17.1336 44.5986L36.1104 44.6039C36.3713 43.9065 36.4004 43.8417 36.2256 43.1245C35.0694 42.1083 16.9019 42.5767 13.8887 42.5634ZM32.9754 19.6468C34.0654 19.6282 35.1899 19.8122 36.109 19.2101C36.2892 18.5022 36.3408 18.5273 35.9898 17.8975C32.8602 16.9104 21.0209 17.6302 16.9178 17.6051C15.547 17.5984 14.2503 17.4066 13.2159 18.4916C13.1404 18.571 13.0769 18.661 13.008 18.7456L13.0821 19.0897C15.4277 20.139 29.6828 19.6388 32.9754 19.6468ZM21.7957 28.0505L35.8216 28.0558C36.1064 27.3134 36.2335 27.1997 36.023 26.4481C34.5237 25.4226 16.6145 25.8923 13.4556 25.9717C13.3033 26.8424 13.1179 27.0276 13.6239 27.7858C16.1522 28.372 19.1879 28.0531 21.7957 28.0505ZM13.7258 11.0922C16.2039 11.5064 18.9415 11.2722 21.4567 11.2735L35.872 11.2867C35.9726 10.5007 36.0971 10.199 35.7567 9.46731C33.4284 8.67867 17.1548 9.24632 13.3974 9.25161C13.4106 10.0072 13.3126 10.4465 13.7258 11.0922ZM35.7567 9.46731C33.4284 8.67867 17.1548 9.24632 13.3974 9.25161C13.4106 10.0072 13.3126 10.4465 13.7258 11.0922C16.2039 11.5064 18.9415 11.2722 21.4567 11.2735L35.872 11.2867C35.9726 10.5007 36.0971 10.199 35.7567 9.46731ZM36.023 26.4481C34.5237 25.4226 16.6145 25.8923 13.4556 25.9717C13.3033 26.8424 13.1179 27.0276 13.6239 27.7858C16.1522 28.372 19.1879 28.0531 21.7957 28.0505L35.8216 28.0558C36.1064 27.3134 36.2335 27.1997 36.023 26.4481ZM35.9898 17.8975C32.8602 16.9104 21.0209 17.6302 16.9178 17.6051C15.547 17.5984 14.2503 17.4066 13.2159 18.4916C13.1404 18.571 13.0769 18.661 13.008 18.7456L13.0821 19.0897C15.4277 20.139 29.6828 19.6388 32.9754 19.6468C34.0654 19.6282 35.1899 19.8122 36.109 19.2101C36.2892 18.5022 36.3408 18.5273 35.9898 17.8975ZM36.2256 43.1245C35.0694 42.1083 16.9019 42.5767 13.8887 42.5634C13.5179 43.1562 13.4398 43.2859 13.4053 43.9767C14.2371 44.8142 15.984 44.5933 17.1336 44.5986L36.1104 44.6039C36.3713 43.9065 36.4004 43.8417 36.2256 43.1245ZM36.2335 34.8928C34.6455 33.7628 16.5787 34.2272 13.6358 34.3304C13.4133 35.0728 13.3033 35.2064 13.5457 35.9262C15.0344 36.8062 33.0827 36.3986 35.8627 36.2544C36.1805 35.6616 36.2958 35.5504 36.2335 34.8928ZM35.9766 50.8176C33.4284 50.3876 30.6589 50.6271 28.0749 50.6364L13.4133 50.692C13.4133 51.4687 13.2702 51.8775 13.7431 52.5272C16.535 52.9335 19.5746 52.6913 22.3997 52.6768C27.0869 52.653 31.7821 52.6913 36.4666 52.6C36.4044 51.8087 36.4918 51.4396 35.9766 50.8176ZM35.9766 50.8176C33.4284 50.3876 30.6589 50.6271 28.0749 50.6364L13.4133 50.692C13.4133 51.4687 13.2702 51.8775 13.7431 52.5272C16.535 52.9335 19.5746 52.6913 22.3997 52.6768C27.0869 52.653 31.7821 52.6913 36.4666 52.6C36.4044 51.8087 36.4918 51.4396 35.9766 50.8176ZM36.2335 34.8928C34.6455 33.7628 16.5787 34.2272 13.6358 34.3304C13.4133 35.0728 13.3033 35.2064 13.5457 35.9262C15.0344 36.8062 33.0827 36.3986 35.8627 36.2544C36.1805 35.6616 36.2958 35.5504 36.2335 34.8928ZM36.2256 43.1245C35.0694 42.1083 16.9019 42.5767 13.8887 42.5634C13.5179 43.1562 13.4398 43.2859 13.4053 43.9767C14.2371 44.8142 15.984 44.5933 17.1336 44.5986L36.1104 44.6039C36.3713 43.9065 36.4004 43.8417 36.2256 43.1245ZM35.9898 17.8975C32.8602 16.9104 21.0209 17.6302 16.9178 17.6051C15.547 17.5984 14.2503 17.4066 13.2159 18.4916C13.1404 18.571 13.0769 18.661 13.008 18.7456L13.0821 19.0897C15.4277 20.139 29.6828 19.6388 32.9754 19.6468C34.0654 19.6282 35.1899 19.8122 36.109 19.2101C36.2892 18.5022 36.3408 18.5273 35.9898 17.8975ZM36.023 26.4481C34.5237 25.4226 16.6145 25.8923 13.4556 25.9717C13.3033 26.8424 13.1179 27.0276 13.6239 27.7858C16.1522 28.372 19.1879 28.0531 21.7957 28.0505L35.8216 28.0558C36.1064 27.3134 36.2335 27.1997 36.023 26.4481ZM35.7567 9.46731C33.4284 8.67867 17.1548 9.24632 13.3974 9.25161C13.4106 10.0072 13.3126 10.4465 13.7258 11.0922C16.2039 11.5064 18.9415 11.2722 21.4567 11.2735L35.872 11.2867C35.9726 10.5007 36.0971 10.199 35.7567 9.46731ZM35.7567 9.46731C33.4284 8.67867 17.1548 9.24632 13.3974 9.25161C13.4106 10.0072 13.3126 10.4465 13.7258 11.0922C16.2039 11.5064 18.9415 11.2722 21.4567 11.2735L35.872 11.2867C35.9726 10.5007 36.0971 10.199 35.7567 9.46731ZM36.023 26.4481C34.5237 25.4226 16.6145 25.8923 13.4556 25.9717C13.3033 26.8424 13.1179 27.0276 13.6239 27.7858C16.1522 28.372 19.1879 28.0531 21.7957 28.0505L35.8216 28.0558C36.1064 27.3134 36.2335 27.1997 36.023 26.4481ZM35.9898 17.8975C32.8602 16.9104 21.0209 17.6302 16.9178 17.6051C15.547 17.5984 14.2503 17.4066 13.2159 18.4916C13.1404 18.571 13.0769 18.661 13.008 18.7456L13.0821 19.0897C15.4277 20.139 29.6828 19.6388 32.9754 19.6468C34.0654 19.6282 35.1899 19.8122 36.109 19.2101C36.2892 18.5022 36.3408 18.5273 35.9898 17.8975ZM36.2256 43.1245C35.0694 42.1083 16.9019 42.5767 13.8887 42.5634C13.5179 43.1562 13.4398 43.2859 13.4053 43.9767C14.2371 44.8142 15.984 44.5933 17.1336 44.5986L36.1104 44.6039C36.3713 43.9065 36.4004 43.8417 36.2256 43.1245ZM36.2335 34.8928C34.6455 33.7628 16.5787 34.2272 13.6358 34.3304C13.4133 35.0728 13.3033 35.2064 13.5457 35.9262C15.0344 36.8062 33.0827 36.3986 35.8627 36.2544C36.1805 35.6616 36.2958 35.5504 36.2335 34.8928ZM35.9766 50.8176C33.4284 50.3876 30.6589 50.6271 28.0749 50.6364L13.4133 50.692C13.4133 51.4687 13.2702 51.8775 13.7431 52.5272C16.535 52.9335 19.5746 52.6913 22.3997 52.6768C27.0869 52.653 31.7821 52.6913 36.4666 52.6C36.4044 51.8087 36.4918 51.4396 35.9766 50.8176ZM35.9766 50.8176C33.4284 50.3876 30.6589 50.6271 28.0749 50.6364L13.4133 50.692C13.4133 51.4687 13.2702 51.8775 13.7431 52.5272C16.535 52.9335 19.5746 52.6913 22.3997 52.6768C27.0869 52.653 31.7821 52.6913 36.4666 52.6C36.4044 51.8087 36.4918 51.4396 35.9766 50.8176ZM36.2335 34.8928C34.6455 33.7628 16.5787 34.2272 13.6358 34.3304C13.4133 35.0728 13.3033 35.2064 13.5457 35.9262C15.0344 36.8062 33.0827 36.3986 35.8627 36.2544C36.1805 35.6616 36.2958 35.5504 36.2335 34.8928ZM36.2256 43.1245C35.0694 42.1083 16.9019 42.5767 13.8887 42.5634C13.5179 43.1562 13.4398 43.2859 13.4053 43.9767C14.2371 44.8142 15.984 44.5933 17.1336 44.5986L36.1104 44.6039C36.3713 43.9065 36.4004 43.8417 36.2256 43.1245ZM35.9898 17.8975C32.8602 16.9104 21.0209 17.6302 16.9178 17.6051C15.547 17.5984 14.2503 17.4066 13.2159 18.4916C13.1404 18.571 13.0769 18.661 13.008 18.7456L13.0821 19.0897C15.4277 20.139 29.6828 19.6388 32.9754 19.6468C34.0654 19.6282 35.1899 19.8122 36.109 19.2101C36.2892 18.5022 36.3408 18.5273 35.9898 17.8975ZM36.023 26.4481C34.5237 25.4226 16.6145 25.8923 13.4556 25.9717C13.3033 26.8424 13.1179 27.0276 13.6239 27.7858C16.1522 28.372 19.1879 28.0531 21.7957 28.0505L35.8216 28.0558C36.1064 27.3134 36.2335 27.1997 36.023 26.4481ZM35.7567 9.46731C33.4284 8.67867 17.1548 9.24632 13.3974 9.25161C13.4106 10.0072 13.3126 10.4465 13.7258 11.0922C16.2039 11.5064 18.9415 11.2722 21.4567 11.2735L35.872 11.2867C35.9726 10.5007 36.0971 10.199 35.7567 9.46731ZM50.0025 11.0128C49.58 10.338 49.6754 10.0918 49.7058 9.3138C53.103 9.27542 69.0203 8.58074 71.0957 9.55463C71.4891 10.1792 71.3858 10.334 71.3142 11.0816C67.8031 11.4627 53.1679 11.6863 50.0025 11.0128ZM71.3897 51.1736C71.7831 51.863 71.6109 51.8683 71.4215 52.5974C68.6415 52.813 51.6766 53.2365 50.1005 52.3724C49.9124 51.6645 49.9456 51.511 50.1283 50.7938C53.8646 50.7197 68.8905 50.115 71.3897 51.1736ZM50.0105 19.3676C49.5429 18.8198 49.6436 18.4427 49.5906 17.748C53.7971 17.5204 67.6853 17.1102 71.2546 17.8432C71.7209 18.4731 71.5897 18.7814 71.5897 19.5343C67.713 19.7368 63.7503 19.5727 59.8644 19.574C56.6751 19.5753 53.1494 19.8836 50.0105 19.3676ZM71.5884 26.5605C71.7421 27.2711 71.5977 27.3386 71.3301 27.9856C67.8587 28.1921 52.3282 28.6605 49.8846 27.7104C49.6224 26.9998 49.7019 26.841 49.8635 26.0881C52.9666 26.0709 70.0653 25.5562 71.5884 26.5605ZM71.8083 44.3564C68.3435 44.7997 64.6152 44.5681 61.1239 44.5747C57.5929 44.5814 53.9123 44.8023 50.3998 44.4318C49.7985 43.9515 49.8052 43.4209 49.6038 42.6997C52.9547 42.3835 56.532 42.619 59.9067 42.619C63.6284 42.6177 67.5382 42.3332 71.2215 42.7752C71.803 43.2859 71.7076 43.6061 71.8083 44.3564ZM71.244 34.6599C71.4493 34.7697 71.5977 34.9616 71.7751 35.1111L71.8268 36.2068C68.3938 36.6858 53.6434 36.7254 50.18 36.2848C49.6158 35.61 49.686 35.3599 49.6131 34.5051C52.0104 34.3754 70.1712 34.0843 71.244 34.6599ZM71.8083 44.3564C68.3435 44.7997 64.6152 44.5681 61.1239 44.5747C57.5929 44.5814 53.9123 44.8023 50.3998 44.4318C49.7985 43.9515 49.8052 43.4209 49.6038 42.6997C52.9547 42.3835 56.532 42.619 59.9067 42.619C63.6284 42.6177 67.5382 42.3332 71.2215 42.7752C71.803 43.2859 71.7076 43.6061 71.8083 44.3564ZM71.5897 19.5343C67.713 19.7368 63.7503 19.5727 59.8644 19.574C56.6751 19.5753 53.1494 19.8836 50.0105 19.3676C49.5429 18.8198 49.6436 18.4427 49.5906 17.748C53.7971 17.5204 67.6853 17.1102 71.2546 17.8432C71.7209 18.4731 71.5897 18.7814 71.5897 19.5343ZM71.4215 52.5974C68.6415 52.813 51.6766 53.2365 50.1005 52.3724C49.9124 51.6645 49.9456 51.511 50.1283 50.7938C53.8646 50.7197 68.8905 50.115 71.3897 51.1736C71.7831 51.863 71.6109 51.8683 71.4215 52.5974ZM71.8268 36.2068C68.3938 36.6858 53.6434 36.7254 50.18 36.2848C49.6158 35.61 49.686 35.3599 49.6131 34.5051C52.0104 34.3754 70.1712 34.0843 71.244 34.6599C71.4493 34.7697 71.5977 34.9616 71.7751 35.1111L71.8268 36.2068ZM71.3142 11.0816C67.8031 11.4627 53.1679 11.6863 50.0025 11.0128C49.58 10.338 49.6754 10.0918 49.7058 9.3138C53.103 9.27542 69.0203 8.58074 71.0957 9.55463C71.4891 10.1792 71.3858 10.334 71.3142 11.0816ZM71.3301 27.9856C67.8587 28.1921 52.3282 28.6605 49.8846 27.7104C49.6224 26.9998 49.7019 26.841 49.8635 26.0881C52.9666 26.0709 70.0653 25.5562 71.5884 26.5605C71.7421 27.2711 71.5977 27.3386 71.3301 27.9856ZM13.3974 9.25161C17.1548 9.24632 33.4284 8.67867 35.7567 9.46731C36.0971 10.199 35.9726 10.5007 35.872 11.2867L21.4567 11.2735C18.9415 11.2722 16.2039 11.5064 13.7258 11.0922C13.3126 10.4465 13.4106 10.0072 13.3974 9.25161ZM13.6239 27.7858C13.1179 27.0276 13.3033 26.8424 13.4556 25.9717C16.6145 25.8923 34.5237 25.4226 36.023 26.4481C36.2335 27.1997 36.1064 27.3134 35.8216 28.0558L21.7957 28.0505C19.1879 28.0531 16.1522 28.372 13.6239 27.7858ZM13.0821 19.0897L13.008 18.7456C13.0769 18.661 13.1404 18.571 13.2159 18.4916C14.2503 17.4066 15.547 17.5984 16.9178 17.6051C21.0209 17.6302 32.8602 16.9104 35.9898 17.8975C36.3408 18.5273 36.2892 18.5022 36.109 19.2101C35.1899 19.8122 34.0654 19.6282 32.9754 19.6468C29.6828 19.6388 15.4277 20.139 13.0821 19.0897ZM36.2256 43.1245C36.4004 43.8417 36.3713 43.9065 36.1104 44.6039L17.1336 44.5986C15.984 44.5933 14.2371 44.8142 13.4053 43.9767C13.4398 43.2859 13.5179 43.1562 13.8887 42.5634C16.9019 42.5767 35.0694 42.1083 36.2256 43.1245ZM36.2335 34.8928C36.2958 35.5504 36.1805 35.6616 35.8627 36.2544C33.0827 36.3986 15.0344 36.8062 13.5457 35.9262C13.3033 35.2064 13.4133 35.0728 13.6358 34.3304C16.5787 34.2272 34.6455 33.7628 36.2335 34.8928ZM36.4666 52.6C31.7821 52.6913 27.0869 52.653 22.3997 52.6768C19.5746 52.6913 16.535 52.9335 13.7431 52.5272C13.2702 51.8775 13.4133 51.4687 13.4133 50.692L28.0749 50.6364C30.6589 50.6271 33.4284 50.3876 35.9766 50.8176C36.4918 51.4396 36.4044 51.8087 36.4666 52.6ZM36.4666 52.6C31.7821 52.6913 27.0869 52.653 22.3997 52.6768C19.5746 52.6913 16.535 52.9335 13.7431 52.5272C13.2702 51.8775 13.4133 51.4687 13.4133 50.692L28.0749 50.6364C30.6589 50.6271 33.4284 50.3876 35.9766 50.8176C36.4918 51.4396 36.4044 51.8087 36.4666 52.6ZM36.1104 44.6039L17.1336 44.5986C15.984 44.5933 14.2371 44.8142 13.4053 43.9767C13.4398 43.2859 13.5179 43.1562 13.8887 42.5634C16.9019 42.5767 35.0694 42.1083 36.2256 43.1245C36.4004 43.8417 36.3713 43.9065 36.1104 44.6039ZM35.872 11.2867L21.4567 11.2735C18.9415 11.2722 16.2039 11.5064 13.7258 11.0922C13.3126 10.4465 13.4106 10.0072 13.3974 9.25161C17.1548 9.24632 33.4284 8.67867 35.7567 9.46731C36.0971 10.199 35.9726 10.5007 35.872 11.2867ZM36.109 19.2101C35.1899 19.8122 34.0654 19.6282 32.9754 19.6468C29.6828 19.6388 15.4277 20.139 13.0821 19.0897L13.008 18.7456C13.0769 18.661 13.1404 18.571 13.2159 18.4916C14.2503 17.4066 15.547 17.5984 16.9178 17.6051C21.0209 17.6302 32.8602 16.9104 35.9898 17.8975C36.3408 18.5273 36.2892 18.5022 36.109 19.2101ZM35.8627 36.2544C33.0827 36.3986 15.0344 36.8062 13.5457 35.9262C13.3033 35.2064 13.4133 35.0728 13.6358 34.3304C16.5787 34.2272 34.6455 33.7628 36.2335 34.8928C36.2958 35.5504 36.1805 35.6616 35.8627 36.2544ZM35.8216 28.0558L21.7957 28.0505C19.1879 28.0531 16.1522 28.372 13.6239 27.7858C13.1179 27.0276 13.3033 26.8424 13.4556 25.9717C16.6145 25.8923 34.5237 25.4226 36.023 26.4481C36.2335 27.1997 36.1064 27.3134 35.8216 28.0558Z" fill="#0060D0"/>
</svg>
