<svg width="85" height="98" viewBox="0 0 85 98" fill="none" xmlns="http://www.w3.org/2000/svg">
<path d="M51.533 68.4474C56.3048 68.3795 61.0845 68.4274 65.8577 68.4208C69.1566 68.4168 72.5401 68.2612 75.8257 68.5218C76.151 69.063 76.0056 69.7464 75.9963 70.3754L60.5715 70.4206C57.8729 70.4272 54.7261 70.749 52.0896 70.2198C51.5475 69.5869 51.6176 69.2625 51.533 68.4474ZM51.57 76.9426C53.0059 77.9199 72.3457 77.3402 75.7953 77.3388C75.8734 76.537 76.0333 76.2033 75.6063 75.5026C72.4409 75.0026 68.8816 75.3457 65.6673 75.347C61.0555 75.3497 56.3484 75.1489 51.7472 75.4161C51.5079 76.0983 51.4259 76.2432 51.57 76.9413V76.9426ZM51.5726 63.1978C52.9186 64.1113 72.7424 63.6047 75.6168 63.5462C76.0056 62.9252 76.0095 62.8335 76.0042 62.0955C75.8376 61.9626 75.7001 61.7817 75.5045 61.6966C74.1267 61.0983 54.3863 61.5544 51.689 61.6262C51.4391 62.3615 51.3783 62.4572 51.5726 63.1978ZM51.4642 55.6201C54.8966 56.12 58.7112 55.8062 62.1873 55.8075C66.7951 55.8089 71.5246 56.0349 76.118 55.6852C75.9752 54.8954 76.0399 54.4167 75.4344 53.8702C71.9438 53.3769 68.1425 53.6734 64.6122 53.6867C59.999 53.704 55.2999 53.5378 50.6987 53.8755C50.8904 54.6387 50.8917 55.0669 51.4642 55.6214V55.6201ZM37.8654 78.3667C37.6763 79.3134 37.2876 79.8386 36.4969 80.3838C36.0024 80.4942 35.6282 80.5832 35.1245 80.4277C33.801 80.0168 33.4043 78.6845 32.8728 77.5383L29.0622 77.4997C26.2102 77.4758 23.3648 77.4997 20.5128 77.5516C20.1426 78.1313 19.7645 78.7164 19.3189 79.2403C18.5679 80.1218 17.8208 80.4862 16.6864 80.5819C16.2382 80.4011 15.9367 80.3692 15.6339 79.9636C14.8433 78.9025 14.8975 77.3867 15.1302 76.1421C15.8415 72.3619 18.6247 70.3022 21.5296 68.2133C20.5961 66.2454 19.8266 63.9225 20.4335 61.7419C21.0404 59.5599 22.7487 58.4522 24.6222 57.4337C26.2842 57.2595 27.7334 57.2755 29.2645 58.0414C30.6687 58.7448 31.6563 59.9521 32.1284 61.4506C32.8886 63.868 32.3016 66.0406 31.2346 68.2399C33.087 69.4247 34.7728 70.7211 36.1029 72.5068C37.322 74.1423 38.2819 76.2818 37.8654 78.3667ZM23.4891 66.7401C24.0259 67.4355 24.9938 68.1774 25.8823 68.3104C26.509 68.4048 27.0379 68.3064 27.6342 68.1296C29.1138 67.1589 30.1213 66.1683 30.4412 64.348C30.6303 63.2723 30.4505 62.1009 29.8066 61.2033C29.1561 60.2965 28.1208 59.6968 27.0207 59.5545C26.2975 59.4614 25.6126 59.5279 24.8959 59.633C23.7205 60.4308 22.8452 61.1235 22.5847 62.5968C22.3375 63.9903 22.6138 65.6085 23.4891 66.7401ZM35.1853 74.637C34.1394 72.7143 31.9565 70.9285 30.2112 69.6427C28.0071 70.7025 26.3477 71.1612 23.9559 70.3475C23.538 70.2052 23.1467 70.0376 22.75 69.8448C20.1426 71.7955 17.8658 73.5493 17.3475 77.0024C17.2999 77.3189 17.2629 77.638 17.2206 77.9558L17.0685 79.0781C17.6688 77.9106 18.1593 76.7525 18.6261 75.5278C23.0092 75.117 27.539 75.3324 31.9433 75.3816L32.2936 75.4454C33.0354 75.585 33.9676 75.6768 34.4779 76.3044C34.6882 76.5636 34.8058 76.8748 34.9566 77.17C35.1218 77.4904 35.3188 77.8042 35.4973 78.1167L35.8543 77.9891C36.1505 76.9905 35.6732 75.5358 35.1853 74.637ZM40.8285 81.7587C37.2704 86.2543 32.5396 88.2807 26.9678 88.8711C22.3414 88.7261 17.3303 86.8832 13.8027 83.8463C9.93128 80.5154 7.49183 75.585 7.13219 70.4857C6.78578 65.5726 8.28912 60.8722 11.5259 57.1638C15.232 52.9142 20.0117 50.9994 25.5213 50.6192C30.0724 50.7242 34.158 51.8345 37.7993 54.6786C41.7223 57.7409 44.438 62.3987 45.037 67.3703C45.6492 72.4403 43.9753 77.7843 40.8285 81.7587ZM42.6161 66.3797C41.7249 61.8761 39.0845 57.9815 35.262 55.4751C32.0266 53.3543 28.1737 52.4342 24.3367 52.7985C19.6428 53.5072 15.3497 55.5403 12.4474 59.4442C9.79113 63.017 8.84709 67.4793 9.47778 71.8593C10.119 76.3177 12.7529 80.2309 16.3096 82.8955C19.824 85.5269 23.8686 86.7636 28.2385 86.6399C32.9085 85.7251 36.9808 83.7027 39.7284 79.6206C42.3503 75.7246 43.539 71.0362 42.6161 66.3797ZM37.8654 78.3667C37.6763 79.3134 37.2876 79.8386 36.4969 80.3838C36.0024 80.4942 35.6282 80.5832 35.1245 80.4277C33.801 80.0168 33.4043 78.6845 32.8728 77.5383L29.0622 77.4997C26.2102 77.4758 23.3648 77.4997 20.5128 77.5516C20.1426 78.1313 19.7645 78.7164 19.3189 79.2403C18.5679 80.1218 17.8208 80.4862 16.6864 80.5819C16.2382 80.4011 15.9367 80.3692 15.6339 79.9636C14.8433 78.9025 14.8975 77.3867 15.1302 76.1421C15.8415 72.3619 18.6247 70.3022 21.5296 68.2133C20.5961 66.2454 19.8266 63.9225 20.4335 61.7419C21.0404 59.5599 22.7487 58.4522 24.6222 57.4337C26.2842 57.2595 27.7334 57.2755 29.2645 58.0414C30.6687 58.7448 31.6563 59.9521 32.1284 61.4506C32.8886 63.868 32.3016 66.0406 31.2346 68.2399C33.087 69.4247 34.7728 70.7211 36.1029 72.5068C37.322 74.1423 38.2819 76.2818 37.8654 78.3667ZM23.4891 66.7401C24.0259 67.4355 24.9938 68.1774 25.8823 68.3104C26.509 68.4048 27.0379 68.3064 27.6342 68.1296C29.1138 67.1589 30.1213 66.1683 30.4412 64.348C30.6303 63.2723 30.4505 62.1009 29.8066 61.2033C29.1561 60.2965 28.1208 59.6968 27.0207 59.5545C26.2975 59.4614 25.6126 59.5279 24.8959 59.633C23.7205 60.4308 22.8452 61.1235 22.5847 62.5968C22.3375 63.9903 22.6138 65.6085 23.4891 66.7401ZM35.1853 74.637C34.1394 72.7143 31.9565 70.9285 30.2112 69.6427C28.0071 70.7025 26.3477 71.1612 23.9559 70.3475C23.538 70.2052 23.1467 70.0376 22.75 69.8448C20.1426 71.7955 17.8658 73.5493 17.3475 77.0024C17.2999 77.3189 17.2629 77.638 17.2206 77.9558L17.0685 79.0781C17.6688 77.9106 18.1593 76.7525 18.6261 75.5278C23.0092 75.117 27.539 75.3324 31.9433 75.3816L32.2936 75.4454C33.0354 75.585 33.9676 75.6768 34.4779 76.3044C34.6882 76.5636 34.8058 76.8748 34.9566 77.17C35.1218 77.4904 35.3188 77.8042 35.4973 78.1167L35.8543 77.9891C36.1505 76.9905 35.6732 75.5358 35.1853 74.637ZM37.8654 78.3667C37.6763 79.3134 37.2876 79.8386 36.4969 80.3838C36.0024 80.4942 35.6282 80.5832 35.1245 80.4277C33.801 80.0168 33.4043 78.6845 32.8728 77.5383L29.0622 77.4997C26.2102 77.4758 23.3648 77.4997 20.5128 77.5516C20.1426 78.1313 19.7645 78.7164 19.3189 79.2403C18.5679 80.1218 17.8208 80.4862 16.6864 80.5819C16.2382 80.4011 15.9367 80.3692 15.6339 79.9636C14.8433 78.9025 14.8975 77.3867 15.1302 76.1421C15.8415 72.3619 18.6247 70.3022 21.5296 68.2133C20.5961 66.2454 19.8266 63.9225 20.4335 61.7419C21.0404 59.5599 22.7487 58.4522 24.6222 57.4337C26.2842 57.2595 27.7334 57.2755 29.2645 58.0414C30.6687 58.7448 31.6563 59.9521 32.1284 61.4506C32.8886 63.868 32.3016 66.0406 31.2346 68.2399C33.087 69.4247 34.7728 70.7211 36.1029 72.5068C37.322 74.1423 38.2819 76.2818 37.8654 78.3667ZM23.4891 66.7401C24.0259 67.4355 24.9938 68.1774 25.8823 68.3104C26.509 68.4048 27.0379 68.3064 27.6342 68.1296C29.1138 67.1589 30.1213 66.1683 30.4412 64.348C30.6303 63.2723 30.4505 62.1009 29.8066 61.2033C29.1561 60.2965 28.1208 59.6968 27.0207 59.5545C26.2975 59.4614 25.6126 59.5279 24.8959 59.633C23.7205 60.4308 22.8452 61.1235 22.5847 62.5968C22.3375 63.9903 22.6138 65.6085 23.4891 66.7401ZM35.1853 74.637C34.1394 72.7143 31.9565 70.9285 30.2112 69.6427C28.0071 70.7025 26.3477 71.1612 23.9559 70.3475C23.538 70.2052 23.1467 70.0376 22.75 69.8448C20.1426 71.7955 17.8658 73.5493 17.3475 77.0024C17.2999 77.3189 17.2629 77.638 17.2206 77.9558L17.0685 79.0781C17.6688 77.9106 18.1593 76.7525 18.6261 75.5278C23.0092 75.117 27.539 75.3324 31.9433 75.3816L32.2936 75.4454C33.0354 75.585 33.9676 75.6768 34.4779 76.3044C34.6882 76.5636 34.8058 76.8748 34.9566 77.17C35.1218 77.4904 35.3188 77.8042 35.4973 78.1167L35.8543 77.9891C36.1505 76.9905 35.6732 75.5358 35.1853 74.637ZM64.5699 27.8619C62.9422 30.4188 60.6773 31.452 57.8623 32.1208C55.5326 32.1541 53.6617 32.0397 51.6136 30.7406C49.5312 29.4189 48.0688 27.2329 47.573 24.8143C47.0613 22.3211 47.5558 19.5993 48.9798 17.4865C50.7106 14.9189 53.232 13.8857 56.1435 13.3419C57.9787 13.2568 59.8602 13.7075 61.4429 14.6476C63.6919 15.9853 65.2825 18.2683 65.8445 20.8279C66.3747 23.2413 65.8934 25.7849 64.5699 27.8619ZM63.2569 19.574C62.3261 17.6939 60.6363 16.3576 58.661 15.7233C57.5397 15.363 56.3273 15.4388 55.1664 15.5119C52.8552 16.5052 51.1165 17.7364 50.1301 20.1684C49.3884 21.9967 49.3751 24.0643 50.1777 25.8753C50.9578 27.6358 52.4241 28.9934 54.2197 29.6636C55.7098 30.2194 57.0545 30.222 58.6014 29.992C60.906 28.9522 62.6527 27.7316 63.561 25.2424C64.2314 23.4022 64.1269 21.3305 63.2569 19.574ZM64.5699 27.8619C62.9422 30.4188 60.6773 31.452 57.8623 32.1208C55.5326 32.1541 53.6617 32.0397 51.6136 30.7406C49.5312 29.4189 48.0688 27.2329 47.573 24.8143C47.0613 22.3211 47.5558 19.5993 48.9798 17.4865C50.7106 14.9189 53.232 13.8857 56.1435 13.3419C57.9787 13.2568 59.8602 13.7075 61.4429 14.6476C63.6919 15.9853 65.2825 18.2683 65.8445 20.8279C66.3747 23.2413 65.8934 25.7849 64.5699 27.8619ZM63.2569 19.574C62.3261 17.6939 60.6363 16.3576 58.661 15.7233C57.5397 15.363 56.3273 15.4388 55.1664 15.5119C52.8552 16.5052 51.1165 17.7364 50.1301 20.1684C49.3884 21.9967 49.3751 24.0643 50.1777 25.8753C50.9578 27.6358 52.4241 28.9934 54.2197 29.6636C55.7098 30.2194 57.0545 30.222 58.6014 29.992C60.906 28.9522 62.6527 27.7316 63.561 25.2424C64.2314 23.4022 64.1269 21.3305 63.2569 19.574ZM64.5699 27.8619C62.9422 30.4188 60.6773 31.452 57.8623 32.1208C55.5326 32.1541 53.6617 32.0397 51.6136 30.7406C49.5312 29.4189 48.0688 27.2329 47.573 24.8143C47.0613 22.3211 47.5558 19.5993 48.9798 17.4865C50.7106 14.9189 53.232 13.8857 56.1435 13.3419C57.9787 13.2568 59.8602 13.7075 61.4429 14.6476C63.6919 15.9853 65.2825 18.2683 65.8445 20.8279C66.3747 23.2413 65.8934 25.7849 64.5699 27.8619ZM63.2569 19.574C62.3261 17.6939 60.6363 16.3576 58.661 15.7233C57.5397 15.363 56.3273 15.4388 55.1664 15.5119C52.8552 16.5052 51.1165 17.7364 50.1301 20.1684C49.3884 21.9967 49.3751 24.0643 50.1777 25.8753C50.9578 27.6358 52.4241 28.9934 54.2197 29.6636C55.7098 30.2194 57.0545 30.222 58.6014 29.992C60.906 28.9522 62.6527 27.7316 63.561 25.2424C64.2314 23.4022 64.1269 21.3305 63.2569 19.574ZM64.5699 27.8619C62.9422 30.4188 60.6773 31.452 57.8623 32.1208C55.5326 32.1541 53.6617 32.0397 51.6136 30.7406C49.5312 29.4189 48.0688 27.2329 47.573 24.8143C47.0613 22.3211 47.5558 19.5993 48.9798 17.4865C50.7106 14.9189 53.232 13.8857 56.1435 13.3419C57.9787 13.2568 59.8602 13.7075 61.4429 14.6476C63.6919 15.9853 65.2825 18.2683 65.8445 20.8279C66.3747 23.2413 65.8934 25.7849 64.5699 27.8619ZM63.2569 19.574C62.3261 17.6939 60.6363 16.3576 58.661 15.7233C57.5397 15.363 56.3273 15.4388 55.1664 15.5119C52.8552 16.5052 51.1165 17.7364 50.1301 20.1684C49.3884 21.9967 49.3751 24.0643 50.1777 25.8753C50.9578 27.6358 52.4241 28.9934 54.2197 29.6636C55.7098 30.2194 57.0545 30.222 58.6014 29.992C60.906 28.9522 62.6527 27.7316 63.561 25.2424C64.2314 23.4022 64.1269 21.3305 63.2569 19.574ZM84.74 91.2924C84.3963 93.4026 83.2631 95.2588 81.5046 96.4715C80.107 97.4341 78.4847 97.8131 76.8148 97.9221C73.2673 98.1522 69.5413 97.7998 65.9701 97.7958L37.8932 97.7213L19.6838 97.591C16.024 97.5698 11.7982 97.9966 8.22432 97.1815C5.44505 96.5472 2.91965 94.6671 1.48375 92.1899C0.779013 90.9759 0.394251 89.6715 0.275253 88.278C0.0293236 85.4086 0.190642 82.4009 0.186676 79.5142L0.169487 63.5834L0.162869 43.9602C0.162869 40.507 -0.379228 35.2602 0.514579 32.049C1.13998 29.8005 2.46879 27.947 4.53142 26.8274C5.80999 26.1333 7.23664 25.7876 8.67784 25.6733C11.2918 25.4645 31.6484 25.3342 33.2126 25.8913C33.8102 26.1054 33.8565 26.1852 34.0892 26.733C33.953 26.9683 33.8671 27.2436 33.6793 27.4377C32.8979 28.2421 11.6237 27.3114 8.29307 27.8685C6.94311 28.0946 5.63545 28.552 4.5724 29.4415C2.65257 31.0478 2.38681 33.2351 2.21625 35.5633C2.09196 46.2937 2.24799 57.0428 2.27046 67.7745C2.28501 74.129 1.92007 80.7495 2.40929 87.072C2.6248 89.8431 3.15899 91.7338 5.36441 93.5222C6.43143 94.3865 7.68619 95.0913 9.06393 95.2628C12.2782 95.663 15.6115 95.4968 18.8482 95.5008L34.9301 95.5394L64.5712 95.7308C68.9014 95.7335 73.6732 96.159 77.9426 95.5487C79.4446 95.3346 80.7179 94.7948 81.6143 93.5143C82.3363 92.4851 82.7012 91.2911 82.8427 90.0518C83.1785 87.1212 82.9881 83.9938 82.9815 81.0433L82.9207 64.6764L82.8308 45.0266C82.8083 40.7331 83.1362 36.0766 82.294 31.8575C81.7519 31.1382 81.1238 30.3643 80.4045 29.8192C78.1859 28.1385 75.4807 28.7235 72.9249 29.0094C72.2598 30.3577 71.6714 31.7485 71.0579 33.122C71.9821 34.0807 73.4299 35.2375 73.3466 36.6869C73.2276 38.7519 69.224 41.4365 67.7762 42.7781C66.7224 41.4139 65.6527 40.0909 64.5077 38.8011C62.9105 39.4566 61.3834 40.027 59.7002 40.4153C59.6923 42.1266 59.5931 43.7833 59.408 45.4853C56.002 45.2633 52.645 45.0159 49.276 44.4428C49.4677 42.7542 49.7216 41.0761 49.9701 39.3954C48.2579 38.6415 46.6369 37.8424 45.0185 36.901C43.687 37.9328 42.501 39.1508 41.2925 40.3222C39.6729 37.9062 37.8442 35.6431 36.247 33.2125C37.4119 31.6089 38.824 30.4694 40.3432 29.2235C40.1541 28.6251 39.9505 28.0334 39.7456 27.4404C39.1638 25.7517 37.1871 25.1946 36.6834 23.6628C37.3696 22.9594 39.259 22.9554 40.2692 22.6336L40.3247 21.9808C39.497 21.3053 35.2369 21.8491 33.8671 21.7574C35.1879 21.1803 36.85 20.9675 38.0346 20.1591C38.8623 19.594 39.1638 19.0262 39.3304 18.0542C38.7856 16.1515 37.3087 15.1529 35.8755 13.907C37.2651 11.499 38.5979 9.31167 40.5759 7.34243C41.6522 8.2825 42.8184 9.08563 43.9859 9.90736C45.1573 9.08563 46.2931 8.20406 47.4394 7.34642C46.8828 5.804 46.4623 4.27487 46.0736 2.68193C48.2579 1.49321 50.6524 0.755252 53.0086 0L53.626 0.200781C54.4392 1.63018 54.8266 3.2723 55.3012 4.84264C56.7134 4.94104 58.14 4.95699 59.5548 5.00752L60.6152 0.188803C63.1141 0.869593 65.6289 1.59825 67.9296 2.81357C67.5805 4.24961 66.8996 5.88643 67.0477 7.36635C67.1402 8.30111 67.4047 8.704 68.1094 9.29437C69.9473 9.68529 71.0685 8.80106 72.593 7.93146C73.976 10.0204 75.482 12.096 76.5556 14.3657C75.3405 15.5638 74.1042 16.339 73.3493 17.9199C73.3612 18.3361 73.2713 18.5542 73.5635 18.888C74.4612 19.9118 76.2779 19.8772 77.5406 20.0128C77.5142 22.2081 77.4402 24.3795 77.2656 26.5681C77.5406 26.5801 77.8143 26.6 78.0894 26.6306C80.1374 26.8527 82.1948 27.9457 83.435 29.625C84.4439 30.9906 84.6475 32.3349 84.7903 33.9784C85.1446 38.0471 84.9119 42.2808 84.904 46.3695L84.9212 67.2679L84.9304 82.8823C84.9304 85.6014 85.1777 88.6065 84.74 91.2924ZM75.2387 22.0233L71.6463 21.6829C71.5193 20.6285 71.3845 19.594 71.1888 18.5489C71.0169 17.6314 70.9772 16.5384 71.5669 15.7419C72.0866 15.0399 72.9632 14.4774 73.6428 13.9296C73.0795 12.9244 72.5335 11.9072 71.9147 10.9365L69.0244 12.4151C67.2791 11.5495 65.7189 10.6546 64.3107 9.26912C64.677 7.55916 65.145 5.80665 65.3433 4.0701C64.3173 3.6579 63.2953 3.22576 62.2587 2.84149C61.8699 4.32805 61.5394 5.86117 60.996 7.29854C58.5195 7.06718 56.1091 6.90761 53.6194 6.96213C53.1461 5.4955 52.6701 4.03022 52.2258 2.55562C51.0914 2.95186 49.9371 3.31753 48.8211 3.76297C49.1914 5.3599 49.6356 6.96347 49.7758 8.60029C47.9339 9.79832 46.071 10.9352 44.4856 12.475L44.3005 12.6518C43.059 11.9112 41.7963 11.1945 40.5825 10.41C40.0219 11.382 39.4335 12.3473 38.947 13.3592C40.0206 14.4362 41.1021 15.476 42.2472 16.4759C40.962 22.2055 40.8113 24.2252 42.6927 29.7926C41.4737 31.1355 40.2797 32.4785 38.9192 33.6792C39.7614 34.7256 40.5759 35.82 41.5213 36.7747C42.7456 35.9569 43.847 35.0674 44.9669 34.114C47.3654 35.6577 49.6621 37.264 52.4122 38.1203L51.8133 42.7209C53.6842 42.9616 55.5009 43.056 57.3877 43.0706C57.4168 41.608 57.4154 40.1347 57.4842 38.6734L61.5539 37.5725C62.8299 37.0978 64.1045 36.6217 65.3671 36.1112C66.3376 37.2228 67.2315 38.353 68.1015 39.547C69.15 38.6508 70.1614 37.7786 71.079 36.7401C70.1509 35.6245 69.2015 34.5368 68.4294 33.3029C69.6855 31.1036 70.8265 28.8831 71.6198 26.4684L75.0919 26.5681L75.2387 22.0233ZM65.8445 20.8279C66.3747 23.2413 65.8934 25.7849 64.5699 27.8619C62.9422 30.4188 60.6773 31.452 57.8623 32.1208C55.5326 32.1541 53.6617 32.0397 51.6136 30.7406C49.5312 29.4189 48.0688 27.2329 47.573 24.8143C47.0613 22.3211 47.5558 19.5993 48.9798 17.4865C50.7106 14.9189 53.232 13.8857 56.1435 13.3419C57.9787 13.2568 59.8602 13.7075 61.4429 14.6476C63.6919 15.9853 65.2825 18.2683 65.8445 20.8279ZM63.2569 19.574C62.3261 17.6939 60.6363 16.3576 58.661 15.7233C57.5397 15.363 56.3273 15.4388 55.1664 15.5119C52.8552 16.5052 51.1165 17.7364 50.1301 20.1684C49.3884 21.9967 49.3751 24.0643 50.1777 25.8753C50.9578 27.6358 52.4241 28.9934 54.2197 29.6636C55.7098 30.2194 57.0545 30.222 58.6014 29.992C60.906 28.9522 62.6527 27.7316 63.561 25.2424C64.2314 23.4022 64.1269 21.3305 63.2569 19.574ZM64.5699 27.8619C62.9422 30.4188 60.6773 31.452 57.8623 32.1208C55.5326 32.1541 53.6617 32.0397 51.6136 30.7406C49.5312 29.4189 48.0688 27.2329 47.573 24.8143C47.0613 22.3211 47.5558 19.5993 48.9798 17.4865C50.7106 14.9189 53.232 13.8857 56.1435 13.3419C57.9787 13.2568 59.8602 13.7075 61.4429 14.6476C63.6919 15.9853 65.2825 18.2683 65.8445 20.8279C66.3747 23.2413 65.8934 25.7849 64.5699 27.8619ZM63.2569 19.574C62.3261 17.6939 60.6363 16.3576 58.661 15.7233C57.5397 15.363 56.3273 15.4388 55.1664 15.5119C52.8552 16.5052 51.1165 17.7364 50.1301 20.1684C49.3884 21.9967 49.3751 24.0643 50.1777 25.8753C50.9578 27.6358 52.4241 28.9934 54.2197 29.6636C55.7098 30.2194 57.0545 30.222 58.6014 29.992C60.906 28.9522 62.6527 27.7316 63.561 25.2424C64.2314 23.4022 64.1269 21.3305 63.2569 19.574ZM64.5699 27.8619C62.9422 30.4188 60.6773 31.452 57.8623 32.1208C55.5326 32.1541 53.6617 32.0397 51.6136 30.7406C49.5312 29.4189 48.0688 27.2329 47.573 24.8143C47.0613 22.3211 47.5558 19.5993 48.9798 17.4865C50.7106 14.9189 53.232 13.8857 56.1435 13.3419C57.9787 13.2568 59.8602 13.7075 61.4429 14.6476C63.6919 15.9853 65.2825 18.2683 65.8445 20.8279C66.3747 23.2413 65.8934 25.7849 64.5699 27.8619ZM63.2569 19.574C62.3261 17.6939 60.6363 16.3576 58.661 15.7233C57.5397 15.363 56.3273 15.4388 55.1664 15.5119C52.8552 16.5052 51.1165 17.7364 50.1301 20.1684C49.3884 21.9967 49.3751 24.0643 50.1777 25.8753C50.9578 27.6358 52.4241 28.9934 54.2197 29.6636C55.7098 30.2194 57.0545 30.222 58.6014 29.992C60.906 28.9522 62.6527 27.7316 63.561 25.2424C64.2314 23.4022 64.1269 21.3305 63.2569 19.574ZM64.5699 27.8619C62.9422 30.4188 60.6773 31.452 57.8623 32.1208C55.5326 32.1541 53.6617 32.0397 51.6136 30.7406C49.5312 29.4189 48.0688 27.2329 47.573 24.8143C47.0613 22.3211 47.5558 19.5993 48.9798 17.4865C50.7106 14.9189 53.232 13.8857 56.1435 13.3419C57.9787 13.2568 59.8602 13.7075 61.4429 14.6476C63.6919 15.9853 65.2825 18.2683 65.8445 20.8279C66.3747 23.2413 65.8934 25.7849 64.5699 27.8619ZM63.2569 19.574C62.3261 17.6939 60.6363 16.3576 58.661 15.7233C57.5397 15.363 56.3273 15.4388 55.1664 15.5119C52.8552 16.5052 51.1165 17.7364 50.1301 20.1684C49.3884 21.9967 49.3751 24.0643 50.1777 25.8753C50.9578 27.6358 52.4241 28.9934 54.2197 29.6636C55.7098 30.2194 57.0545 30.222 58.6014 29.992C60.906 28.9522 62.6527 27.7316 63.561 25.2424C64.2314 23.4022 64.1269 21.3305 63.2569 19.574ZM64.5699 27.8619C62.9422 30.4188 60.6773 31.452 57.8623 32.1208C55.5326 32.1541 53.6617 32.0397 51.6136 30.7406C49.5312 29.4189 48.0688 27.2329 47.573 24.8143C47.0613 22.3211 47.5558 19.5993 48.9798 17.4865C50.7106 14.9189 53.232 13.8857 56.1435 13.3419C57.9787 13.2568 59.8602 13.7075 61.4429 14.6476C63.6919 15.9853 65.2825 18.2683 65.8445 20.8279C66.3747 23.2413 65.8934 25.7849 64.5699 27.8619ZM63.2569 19.574C62.3261 17.6939 60.6363 16.3576 58.661 15.7233C57.5397 15.363 56.3273 15.4388 55.1664 15.5119C52.8552 16.5052 51.1165 17.7364 50.1301 20.1684C49.3884 21.9967 49.3751 24.0643 50.1777 25.8753C50.9578 27.6358 52.4241 28.9934 54.2197 29.6636C55.7098 30.2194 57.0545 30.222 58.6014 29.992C60.906 28.9522 62.6527 27.7316 63.561 25.2424C64.2314 23.4022 64.1269 21.3305 63.2569 19.574Z" fill="#0060D0"/>
</svg>
