<svg width="90" height="78" viewBox="0 0 90 78" fill="none" xmlns="http://www.w3.org/2000/svg">
<path d="M16.8388 52.5084C16.6823 51.7718 16.7323 51.6495 16.9821 50.9299C18.66 50.7694 20.3365 50.7629 22.0196 50.8655C25.7119 51.093 35.6829 53.174 37.7657 56.2113C38.2798 56.9611 38.1023 57.2637 37.9603 58.0845C35.7802 57.9451 32.7966 55.9141 30.6967 55.0682C28.3404 54.1198 25.8434 53.4608 23.32 53.1622C21.6816 52.9688 18.0341 53.4569 16.8388 52.5084ZM20.9861 39.7133C20.4036 40.3421 20.368 40.4092 20.2339 41.255C20.4062 41.6009 20.4141 41.8443 20.8112 41.9824C21.8145 42.331 23.224 41.8838 24.2918 41.8417C28.9702 41.6562 34.2351 43.3991 37.8551 46.3575C38.531 45.6354 38.6138 45.5406 38.7939 44.5751C38.3048 43.3294 36.9807 42.7559 35.8196 42.2442C30.8387 40.0501 26.3746 39.4818 20.9861 39.7133ZM25.4094 12.5472C26.798 12.6117 28.2536 12.98 29.5961 13.3286C32.197 14.006 37.195 17.017 38.2903 17.1946C38.6007 16.4646 38.8755 16.1659 38.5349 15.3662C37.6342 13.247 32.1944 11.8132 30.1129 11.3226C26.4969 10.4702 22.4982 10.115 18.7967 10.4965C18.5811 11.3423 18.4562 11.4068 18.8493 12.1684C20.7283 13.0826 23.3753 12.4512 25.4094 12.5472ZM37.9787 33.4993C33.4396 29.9713 26.4127 29.7727 20.9519 30.1975C20.0249 30.4212 19.7053 30.5198 19.086 31.2473L18.9756 31.7998C19.7303 32.5061 20.6179 32.5495 21.6251 32.5219C28.5534 32.3312 31.8302 31.6393 37.93 36.1972C38.7229 36.0275 38.9544 36.0025 39.5605 35.4816C39.4711 34.67 38.5888 33.9741 37.9787 33.4993ZM19.7158 20.62C19.0452 21.2487 18.923 21.3277 18.702 22.209C19.0295 22.7391 19.1386 22.8957 19.8263 22.9825C21.4805 23.189 23.5133 22.8378 25.199 22.7917C30.3482 22.6523 34.2049 24.432 38.7137 26.7117C39.3883 26.2473 39.5106 26.1605 39.8577 25.4252C39.3738 24.1729 37.7591 23.5205 36.5809 23.0061C31.1793 20.6489 25.5475 20.2017 19.7158 20.62ZM68.6333 41.2879C67.7707 42.2758 65.9167 41.5799 64.7451 41.4878C61.346 41.2234 57.8326 42.4415 54.7478 43.7201C53.4605 44.3686 52.4086 45.3512 51.0818 45.9313C50.4822 45.6577 50.2981 45.4512 49.9497 44.8948C49.9918 44.4212 49.9365 44.2857 50.239 43.8885C52.2008 41.3181 59.2935 39.8212 62.4059 39.4713C63.9995 39.3542 66.6451 39.1359 67.9995 40.0803C68.5899 40.4907 68.5689 40.6275 68.6333 41.2879ZM70.4295 31.5801C70.1783 32.0312 70.0021 32.5417 69.3973 32.5969C68.444 32.6837 67.0607 32.1641 66.0653 32.0826C62.5255 31.7932 59.3553 32.5416 56.0128 33.6308C55.9733 33.6466 55.9339 33.6637 55.8931 33.6795C54.1022 34.374 52.6531 35.479 51.1042 36.5931C50.4717 36.3616 50.4572 36.1656 50.0733 35.6355C50.1285 35.108 50.0759 34.9515 50.4073 34.5069C52.6992 31.4367 59.208 30.3028 62.7188 29.924C64.6964 29.8437 68.0258 29.699 69.7694 30.6751C70.2967 30.971 70.2822 30.9684 70.4295 31.5801ZM71.2592 12.271C70.3598 12.788 68.6635 12.3012 67.5945 12.2644C63.3342 12.1158 59.442 13.2365 55.5854 14.9663C54.8661 15.4135 54.1443 15.8595 53.4105 16.2817C52.4243 16.8513 51.6972 17.1696 50.5598 16.8579L50.4559 16.4422C50.6071 16.141 50.7452 15.8608 50.9608 15.6003C53.7971 12.1776 60.5308 10.6978 64.7451 10.2676C64.8963 10.2531 65.0462 10.2347 65.1987 10.2242C66.8884 10.1032 69.488 9.96768 70.8121 11.2068C71.2697 11.633 71.2552 11.6199 71.2592 12.271ZM71.2658 21.3737L71.2184 21.9407C70.8463 22.4958 70.7372 22.9614 69.985 22.9654C69.0225 22.9693 67.9653 22.5773 66.9805 22.5155C62.8884 22.2629 58.7465 23.164 54.9477 24.6096C53.2948 25.3884 51.6748 26.8353 49.9037 27.2063L49.4553 26.7906C49.3829 26.1974 49.2659 25.8974 49.6236 25.3713C51.805 22.1695 59.9562 20.7265 63.5551 20.374C64.7201 20.2306 66.0377 20.2438 67.2106 20.3095C68.49 20.3806 70.3585 20.3714 71.2658 21.3737ZM72.8673 51.2601C72.6083 51.6666 72.3874 52.1388 71.8456 52.2204C71.0094 52.3466 69.3881 51.9454 68.4847 51.852C65.1435 51.5113 62.3204 51.6389 59.0423 52.3979C56.4848 53.2898 54.3165 55.2445 51.8708 56.0219C51.2843 55.7207 51.1844 55.6431 50.8215 55.0932L50.9871 54.4355C53.4 51.6876 58.3507 50.0946 61.8562 49.5422C64.6438 49.3185 69.6103 49.0962 72.1362 50.3446C72.678 50.6116 72.6859 50.7221 72.8673 51.2601ZM72.8673 51.2601C72.6083 51.6666 72.3874 52.1388 71.8456 52.2204C71.0094 52.3466 69.3881 51.9454 68.4847 51.852C65.1435 51.5113 62.3204 51.6389 59.0423 52.3979C56.4848 53.2898 54.3165 55.2445 51.8708 56.0219C51.2843 55.7207 51.1844 55.6431 50.8215 55.0932L50.9871 54.4355C53.4 51.6876 58.3507 50.0946 61.8562 49.5422C64.6438 49.3185 69.6103 49.0962 72.1362 50.3446C72.678 50.6116 72.6859 50.7221 72.8673 51.2601ZM71.2658 21.3737L71.2184 21.9407C70.8463 22.4958 70.7372 22.9614 69.985 22.9654C69.0225 22.9693 67.9653 22.5773 66.9805 22.5155C62.8884 22.2629 58.7465 23.164 54.9477 24.6096C53.2948 25.3884 51.6748 26.8353 49.9037 27.2063L49.4553 26.7906C49.3829 26.1974 49.2659 25.8974 49.6236 25.3713C51.805 22.1695 59.9562 20.7265 63.5551 20.374C64.7201 20.2306 66.0377 20.2438 67.2106 20.3095C68.49 20.3806 70.3585 20.3714 71.2658 21.3737ZM71.2592 12.271C70.3598 12.788 68.6635 12.3012 67.5945 12.2644C63.3342 12.1158 59.442 13.2365 55.5854 14.9663C54.8661 15.4135 54.1443 15.8595 53.4105 16.2817C52.4243 16.8513 51.6972 17.1696 50.5598 16.8579L50.4559 16.4422C50.6071 16.141 50.7452 15.8608 50.9608 15.6003C53.7971 12.1776 60.5308 10.6978 64.7451 10.2676C64.8963 10.2531 65.0462 10.2347 65.1987 10.2242C66.8884 10.1032 69.488 9.96768 70.8121 11.2068C71.2697 11.633 71.2552 11.6199 71.2592 12.271ZM70.4295 31.5801C70.1783 32.0312 70.0021 32.5417 69.3973 32.5969C68.444 32.6837 67.0607 32.1641 66.0653 32.0826C62.5255 31.7932 59.3553 32.5416 56.0128 33.6308C55.9733 33.6466 55.9339 33.6637 55.8931 33.6795C54.1022 34.374 52.6531 35.479 51.1042 36.5931C50.4717 36.3616 50.4572 36.1656 50.0733 35.6355C50.1285 35.108 50.0759 34.9515 50.4073 34.5069C52.6992 31.4367 59.208 30.3028 62.7188 29.924C64.6964 29.8437 68.0258 29.699 69.7694 30.6751C70.2967 30.971 70.2822 30.9684 70.4295 31.5801ZM68.6333 41.2879C67.7707 42.2758 65.9167 41.5799 64.7451 41.4878C61.346 41.2234 57.8326 42.4415 54.7478 43.7201C53.4605 44.3686 52.4086 45.3512 51.0818 45.9313C50.4822 45.6577 50.2981 45.4512 49.9497 44.8948C49.9918 44.4212 49.9365 44.2857 50.239 43.8885C52.2008 41.3181 59.2935 39.8212 62.4059 39.4713C63.9995 39.3542 66.6451 39.1359 67.9995 40.0803C68.5899 40.4907 68.5689 40.6275 68.6333 41.2879ZM68.6333 41.2879C67.7707 42.2758 65.9167 41.5799 64.7451 41.4878C61.346 41.2234 57.8326 42.4415 54.7478 43.7201C53.4605 44.3686 52.4086 45.3512 51.0818 45.9313C50.4822 45.6577 50.2981 45.4512 49.9497 44.8948C49.9918 44.4212 49.9365 44.2857 50.239 43.8885C52.2008 41.3181 59.2935 39.8212 62.4059 39.4713C63.9995 39.3542 66.6451 39.1359 67.9995 40.0803C68.5899 40.4907 68.5689 40.6275 68.6333 41.2879ZM70.4295 31.5801C70.1783 32.0312 70.0021 32.5417 69.3973 32.5969C68.444 32.6837 67.0607 32.1641 66.0653 32.0826C62.5255 31.7932 59.3553 32.5416 56.0128 33.6308C55.9733 33.6466 55.9339 33.6637 55.8931 33.6795C54.1022 34.374 52.6531 35.479 51.1042 36.5931C50.4717 36.3616 50.4572 36.1656 50.0733 35.6355C50.1285 35.108 50.0759 34.9515 50.4073 34.5069C52.6992 31.4367 59.208 30.3028 62.7188 29.924C64.6964 29.8437 68.0258 29.699 69.7694 30.6751C70.2967 30.971 70.2822 30.9684 70.4295 31.5801ZM71.2592 12.271C70.3598 12.788 68.6635 12.3012 67.5945 12.2644C63.3342 12.1158 59.442 13.2365 55.5854 14.9663C54.8661 15.4135 54.1443 15.8595 53.4105 16.2817C52.4243 16.8513 51.6972 17.1696 50.5598 16.8579L50.4559 16.4422C50.6071 16.141 50.7452 15.8608 50.9608 15.6003C53.7971 12.1776 60.5308 10.6978 64.7451 10.2676C64.8963 10.2531 65.0462 10.2347 65.1987 10.2242C66.8884 10.1032 69.488 9.96768 70.8121 11.2068C71.2697 11.633 71.2552 11.6199 71.2592 12.271ZM71.2658 21.3737L71.2184 21.9407C70.8463 22.4958 70.7372 22.9614 69.985 22.9654C69.0225 22.9693 67.9653 22.5773 66.9805 22.5155C62.8884 22.2629 58.7465 23.164 54.9477 24.6096C53.2948 25.3884 51.6748 26.8353 49.9037 27.2063L49.4553 26.7906C49.3829 26.1974 49.2659 25.8974 49.6236 25.3713C51.805 22.1695 59.9562 20.7265 63.5551 20.374C64.7201 20.2306 66.0377 20.2438 67.2106 20.3095C68.49 20.3806 70.3585 20.3714 71.2658 21.3737ZM72.8673 51.2601C72.6083 51.6666 72.3874 52.1388 71.8456 52.2204C71.0094 52.3466 69.3881 51.9454 68.4847 51.852C65.1435 51.5113 62.3204 51.6389 59.0423 52.3979C56.4848 53.2898 54.3165 55.2445 51.8708 56.0219C51.2843 55.7207 51.1844 55.6431 50.8215 55.0932L50.9871 54.4355C53.4 51.6876 58.3507 50.0946 61.8562 49.5422C64.6438 49.3185 69.6103 49.0962 72.1362 50.3446C72.678 50.6116 72.6859 50.7221 72.8673 51.2601ZM72.8673 51.2601C72.6083 51.6666 72.3874 52.1388 71.8456 52.2204C71.0094 52.3466 69.3881 51.9454 68.4847 51.852C65.1435 51.5113 62.3204 51.6389 59.0423 52.3979C56.4848 53.2898 54.3165 55.2445 51.8708 56.0219C51.2843 55.7207 51.1844 55.6431 50.8215 55.0932L50.9871 54.4355C53.4 51.6876 58.3507 50.0946 61.8562 49.5422C64.6438 49.3185 69.6103 49.0962 72.1362 50.3446C72.678 50.6116 72.6859 50.7221 72.8673 51.2601ZM54.9477 24.6096C53.2948 25.3884 51.6748 26.8353 49.9037 27.2063L49.4553 26.7906C49.3829 26.1974 49.2659 25.8974 49.6236 25.3713C51.805 22.1695 59.9562 20.7265 63.5551 20.374C64.7201 20.2306 66.0377 20.2438 67.2106 20.3095C68.49 20.3806 70.3585 20.3714 71.2658 21.3737L71.2184 21.9407C70.8463 22.4958 70.7372 22.9614 69.985 22.9654C69.0225 22.9693 67.9653 22.5773 66.9805 22.5155C62.8884 22.2629 58.7465 23.164 54.9477 24.6096ZM50.5598 16.8579L50.4559 16.4422C50.6071 16.141 50.7452 15.8608 50.9608 15.6003C53.7971 12.1776 60.5308 10.6978 64.7451 10.2676C64.8963 10.2531 65.0462 10.2347 65.1987 10.2242C66.8884 10.1032 69.488 9.96768 70.8121 11.2068C71.2697 11.633 71.2552 11.6199 71.2592 12.271C70.3598 12.788 68.6635 12.3012 67.5945 12.2644C63.3342 12.1158 59.442 13.2365 55.5854 14.9663C54.8661 15.4135 54.1443 15.8595 53.4105 16.2817C52.4243 16.8513 51.6972 17.1696 50.5598 16.8579ZM69.7694 30.6751C70.2967 30.971 70.2822 30.9684 70.4295 31.5801C70.1783 32.0312 70.0021 32.5417 69.3973 32.5969C68.444 32.6837 67.0607 32.1641 66.0653 32.0826C62.5255 31.7932 59.3553 32.5416 56.0128 33.6308C55.9733 33.6466 55.9339 33.6637 55.8931 33.6795C54.1022 34.374 52.6531 35.479 51.1042 36.5931C50.4717 36.3616 50.4572 36.1656 50.0733 35.6355C50.1285 35.108 50.0759 34.9515 50.4073 34.5069C52.6992 31.4367 59.208 30.3028 62.7188 29.924C64.6964 29.8437 68.0258 29.699 69.7694 30.6751ZM51.0818 45.9313C50.4822 45.6577 50.2981 45.4512 49.9497 44.8948C49.9918 44.4212 49.9365 44.2857 50.239 43.8885C52.2008 41.3181 59.2935 39.8212 62.4059 39.4713C63.9995 39.3542 66.6451 39.1359 67.9995 40.0803C68.5899 40.4907 68.5689 40.6275 68.6333 41.2879C67.7707 42.2758 65.9167 41.5799 64.7451 41.4878C61.346 41.2234 57.8326 42.4415 54.7478 43.7201C53.4605 44.3686 52.4086 45.3512 51.0818 45.9313ZM89.7876 73.0316C87.5878 73.1724 85.3485 73.079 83.1434 73.0698L65.5091 73.0369C62.114 73.0343 58.4966 72.7949 55.1423 73.325C50.7321 74.0208 48.8925 77.9987 44.498 78C40.9136 78.0013 39.0372 76.3833 36.6717 73.9472C28.8598 72.1687 16.6192 72.9935 8.36288 73.0093C5.85534 73.0132 3.29388 73.1303 0.800805 72.8514C0.19463 72.1858 0.215668 71.5123 0.168331 70.6231C-0.0118118 67.2675 0.140718 63.8368 0.143348 60.472V40.4473L0.0723427 24.928C0.0618234 22.2682 -0.111745 19.5124 0.11968 16.8697C0.243282 15.4727 0.432629 13.9324 1.4438 12.8748C3.43852 10.7898 7.77511 11.3568 10.4273 11.3607C10.3997 7.68279 10.0907 3.72337 10.5496 0.0822768C13.6488 -0.120298 16.8493 0.0927951 19.9486 0.274323C29.5685 0.839955 37.0727 2.49477 44.6598 8.67462C54.8398 0.417718 66.1521 0.0546748 78.6832 0.367745C79.0606 3.99568 78.8817 7.78671 78.8936 11.4383C81.0145 11.4304 83.5378 11.1818 85.601 11.6619C87.7101 12.1526 88.6844 13.2878 89.7798 15.0755C90.1308 18.3364 89.9481 21.7617 89.9481 25.0398L89.9441 42.648L89.9467 61.2534C89.952 65.1523 90.1361 69.1472 89.7876 73.0316ZM45.8616 47.0244C45.8721 53.1346 45.7222 59.2789 45.8905 65.3825C48.0391 64.7406 49.9904 63.6027 51.976 62.5806C62.227 57.636 65.8615 58.8264 76.7187 59.6867L76.77 2.25667C74.1901 2.25536 71.5827 2.17644 69.0094 2.36191C60.4585 2.89729 51.8918 4.28638 45.8393 10.9477L45.8616 47.0244ZM12.422 2.0804L12.6337 59.0619C17.8092 59.0119 23.1806 58.6685 28.2681 59.7696C32.506 60.6864 40.0247 65.5259 43.5579 65.2417L43.5276 30.7356C43.5408 24.1874 43.9984 17.3301 43.5224 10.8175C38.0655 4.54157 29.4712 2.95912 21.5817 2.4027C18.5298 2.18697 15.4818 2.10276 12.422 2.0804ZM37.1687 69.7457C31.8565 66.0362 12.0723 68.1357 4.85206 67.5726C4.42208 62.0387 4.70347 56.3376 4.70479 50.7813L4.7232 21.012C4.68901 19.1546 4.42602 17.3959 5.6318 15.8437L6.05915 15.8371C6.70214 16.6145 6.83889 17.5892 6.91121 18.5719C7.25967 23.36 6.85862 28.4546 6.85073 33.2783L6.80733 65.7376C14.1774 65.6982 22.3365 65.0996 29.6158 65.6824C33.1398 65.9639 36.502 67.2675 39.9931 67.5082C31.3095 60.6746 21.0873 61.1613 10.6955 61.2876C10.3471 45.4196 10.4957 29.5096 10.4128 13.6351C8.27872 13.6627 6.13278 13.6443 4.00262 13.7745C3.34648 14.1941 2.61933 14.5704 2.37081 15.357C1.87641 16.921 1.91059 65.906 2.17226 70.8375C11.1137 70.9073 20.1669 70.4929 29.0846 70.9204C31.1898 71.0217 35.1924 72.3621 36.8702 71.2374C37.1884 70.5547 37.4028 70.4955 37.1687 69.7457ZM49.1844 70.3232C48.619 69.0788 47.3146 68.0699 46.0247 67.6687C44.9859 67.3451 43.7604 67.47 42.6848 67.5095C41.2791 68.0751 39.9747 68.6776 39.2857 70.118C38.8807 70.9599 38.8873 71.8872 39.2502 72.7436C39.7762 73.9788 41.0201 74.9535 42.2535 75.4191C43.3843 75.8466 44.7189 75.7388 45.905 75.6493C47.283 75.0666 48.6229 74.3602 49.2409 72.9067C49.6052 72.0543 49.567 71.1624 49.1844 70.3232ZM87.785 34.5884C87.7653 28.7111 88.1795 22.5247 87.6049 16.6934C87.5365 16.0015 87.5589 15.0452 86.9658 14.5677C85.2012 13.1471 81.104 13.6403 78.937 13.7022C78.9291 19.1769 79.3183 60.451 78.3952 61.6348C76.6464 62.282 74.5044 61.7782 72.6964 61.5599C63.6945 60.472 57.2159 61.2691 49.4369 66.3138L49.2475 66.736C49.9812 67.1754 56.4677 65.8429 58.1166 65.7942C66.2665 65.5561 74.4636 65.9218 82.6214 65.8416L82.5977 31.5972C82.5911 26.6038 82.0546 20.9949 82.7489 16.0712C83.3498 15.6832 83.5471 15.6871 84.2703 15.6345L84.6858 15.8647C85.43 18.6508 84.8462 23.3745 84.8409 26.4026L84.7857 52.2151C84.7739 56.4626 85.0737 60.9416 84.6253 65.1483C84.5254 66.0915 84.478 67.1083 83.8403 67.8305C77.7601 68.8894 54.8306 65.9192 51.3764 69.5708C51.2817 70.3679 51.3369 70.848 51.5249 71.6084C52.7268 72.1924 56.8267 70.9756 58.4979 70.9664L87.7114 71.0006C87.8613 58.8633 87.8271 46.7272 87.785 34.5884ZM72.1362 50.3446C72.678 50.6116 72.6859 50.7221 72.8673 51.2601C72.6083 51.6666 72.3874 52.1388 71.8456 52.2204C71.0094 52.3466 69.3881 51.9454 68.4847 51.852C65.1435 51.5113 62.3204 51.6389 59.0423 52.3979C56.4848 53.2898 54.3165 55.2445 51.8708 56.0219C51.2843 55.7207 51.1844 55.6431 50.8215 55.0932L50.9871 54.4355C53.4 51.6876 58.3507 50.0946 61.8562 49.5422C64.6438 49.3185 69.6103 49.0962 72.1362 50.3446ZM49.4553 26.7906C49.3829 26.1974 49.2659 25.8974 49.6236 25.3713C51.805 22.1695 59.9562 20.7265 63.5551 20.374C64.7201 20.2306 66.0377 20.2438 67.2106 20.3095C68.49 20.3806 70.3585 20.3714 71.2658 21.3737L71.2184 21.9407C70.8463 22.4958 70.7372 22.9614 69.985 22.9654C69.0225 22.9693 67.9653 22.5773 66.9805 22.5155C62.8884 22.2629 58.7465 23.164 54.9477 24.6096C53.2948 25.3884 51.6748 26.8353 49.9037 27.2063L49.4553 26.7906ZM50.5598 16.8579L50.4559 16.4422C50.6071 16.141 50.7452 15.8608 50.9608 15.6003C53.7971 12.1776 60.5308 10.6978 64.7451 10.2676C64.8963 10.2531 65.0462 10.2347 65.1987 10.2242C66.8884 10.1032 69.488 9.96768 70.8121 11.2068C71.2697 11.633 71.2552 11.6199 71.2592 12.271C70.3598 12.788 68.6635 12.3012 67.5945 12.2644C63.3342 12.1158 59.442 13.2365 55.5854 14.9663C54.8661 15.4135 54.1443 15.8595 53.4105 16.2817C52.4243 16.8513 51.6972 17.1696 50.5598 16.8579ZM50.0733 35.6355C50.1285 35.108 50.0759 34.9515 50.4073 34.5069C52.6992 31.4367 59.208 30.3028 62.7188 29.924C64.6964 29.8437 68.0258 29.699 69.7694 30.6751C70.2967 30.971 70.2822 30.9684 70.4295 31.5801C70.1783 32.0312 70.0021 32.5417 69.3973 32.5969C68.444 32.6837 67.0607 32.1641 66.0653 32.0826C62.5255 31.7932 59.3553 32.5416 56.0128 33.6308C55.9733 33.6466 55.9339 33.6637 55.8931 33.6795C54.1022 34.374 52.6531 35.479 51.1042 36.5931C50.4717 36.3616 50.4572 36.1656 50.0733 35.6355ZM51.0818 45.9313C50.4822 45.6577 50.2981 45.4512 49.9497 44.8948C49.9918 44.4212 49.9365 44.2857 50.239 43.8885C52.2008 41.3181 59.2935 39.8212 62.4059 39.4713C63.9995 39.3542 66.6451 39.1359 67.9995 40.0803C68.5899 40.4907 68.5689 40.6275 68.6333 41.2879C67.7707 42.2758 65.9167 41.5799 64.7451 41.4878C61.346 41.2234 57.8326 42.4415 54.7478 43.7201C53.4605 44.3686 52.4086 45.3512 51.0818 45.9313ZM68.6333 41.2879C67.7707 42.2758 65.9167 41.5799 64.7451 41.4878C61.346 41.2234 57.8326 42.4415 54.7478 43.7201C53.4605 44.3686 52.4086 45.3512 51.0818 45.9313C50.4822 45.6577 50.2981 45.4512 49.9497 44.8948C49.9918 44.4212 49.9365 44.2857 50.239 43.8885C52.2008 41.3181 59.2935 39.8212 62.4059 39.4713C63.9995 39.3542 66.6451 39.1359 67.9995 40.0803C68.5899 40.4907 68.5689 40.6275 68.6333 41.2879ZM70.4295 31.5801C70.1783 32.0312 70.0021 32.5417 69.3973 32.5969C68.444 32.6837 67.0607 32.1641 66.0653 32.0826C62.5255 31.7932 59.3553 32.5416 56.0128 33.6308C55.9733 33.6466 55.9339 33.6637 55.8931 33.6795C54.1022 34.374 52.6531 35.479 51.1042 36.5931C50.4717 36.3616 50.4572 36.1656 50.0733 35.6355C50.1285 35.108 50.0759 34.9515 50.4073 34.5069C52.6992 31.4367 59.208 30.3028 62.7188 29.924C64.6964 29.8437 68.0258 29.699 69.7694 30.6751C70.2967 30.971 70.2822 30.9684 70.4295 31.5801ZM71.2592 12.271C70.3598 12.788 68.6635 12.3012 67.5945 12.2644C63.3342 12.1158 59.442 13.2365 55.5854 14.9663C54.8661 15.4135 54.1443 15.8595 53.4105 16.2817C52.4243 16.8513 51.6972 17.1696 50.5598 16.8579L50.4559 16.4422C50.6071 16.141 50.7452 15.8608 50.9608 15.6003C53.7971 12.1776 60.5308 10.6978 64.7451 10.2676C64.8963 10.2531 65.0462 10.2347 65.1987 10.2242C66.8884 10.1032 69.488 9.96768 70.8121 11.2068C71.2697 11.633 71.2552 11.6199 71.2592 12.271ZM71.2658 21.3737L71.2184 21.9407C70.8463 22.4958 70.7372 22.9614 69.985 22.9654C69.0225 22.9693 67.9653 22.5773 66.9805 22.5155C62.8884 22.2629 58.7465 23.164 54.9477 24.6096C53.2948 25.3884 51.6748 26.8353 49.9037 27.2063L49.4553 26.7906C49.3829 26.1974 49.2659 25.8974 49.6236 25.3713C51.805 22.1695 59.9562 20.7265 63.5551 20.374C64.7201 20.2306 66.0377 20.2438 67.2106 20.3095C68.49 20.3806 70.3585 20.3714 71.2658 21.3737ZM72.8673 51.2601C72.6083 51.6666 72.3874 52.1388 71.8456 52.2204C71.0094 52.3466 69.3881 51.9454 68.4847 51.852C65.1435 51.5113 62.3204 51.6389 59.0423 52.3979C56.4848 53.2898 54.3165 55.2445 51.8708 56.0219C51.2843 55.7207 51.1844 55.6431 50.8215 55.0932L50.9871 54.4355C53.4 51.6876 58.3507 50.0946 61.8562 49.5422C64.6438 49.3185 69.6103 49.0962 72.1362 50.3446C72.678 50.6116 72.6859 50.7221 72.8673 51.2601ZM72.8673 51.2601C72.6083 51.6666 72.3874 52.1388 71.8456 52.2204C71.0094 52.3466 69.3881 51.9454 68.4847 51.852C65.1435 51.5113 62.3204 51.6389 59.0423 52.3979C56.4848 53.2898 54.3165 55.2445 51.8708 56.0219C51.2843 55.7207 51.1844 55.6431 50.8215 55.0932L50.9871 54.4355C53.4 51.6876 58.3507 50.0946 61.8562 49.5422C64.6438 49.3185 69.6103 49.0962 72.1362 50.3446C72.678 50.6116 72.6859 50.7221 72.8673 51.2601ZM71.2658 21.3737L71.2184 21.9407C70.8463 22.4958 70.7372 22.9614 69.985 22.9654C69.0225 22.9693 67.9653 22.5773 66.9805 22.5155C62.8884 22.2629 58.7465 23.164 54.9477 24.6096C53.2948 25.3884 51.6748 26.8353 49.9037 27.2063L49.4553 26.7906C49.3829 26.1974 49.2659 25.8974 49.6236 25.3713C51.805 22.1695 59.9562 20.7265 63.5551 20.374C64.7201 20.2306 66.0377 20.2438 67.2106 20.3095C68.49 20.3806 70.3585 20.3714 71.2658 21.3737ZM71.2592 12.271C70.3598 12.788 68.6635 12.3012 67.5945 12.2644C63.3342 12.1158 59.442 13.2365 55.5854 14.9663C54.8661 15.4135 54.1443 15.8595 53.4105 16.2817C52.4243 16.8513 51.6972 17.1696 50.5598 16.8579L50.4559 16.4422C50.6071 16.141 50.7452 15.8608 50.9608 15.6003C53.7971 12.1776 60.5308 10.6978 64.7451 10.2676C64.8963 10.2531 65.0462 10.2347 65.1987 10.2242C66.8884 10.1032 69.488 9.96768 70.8121 11.2068C71.2697 11.633 71.2552 11.6199 71.2592 12.271ZM70.4295 31.5801C70.1783 32.0312 70.0021 32.5417 69.3973 32.5969C68.444 32.6837 67.0607 32.1641 66.0653 32.0826C62.5255 31.7932 59.3553 32.5416 56.0128 33.6308C55.9733 33.6466 55.9339 33.6637 55.8931 33.6795C54.1022 34.374 52.6531 35.479 51.1042 36.5931C50.4717 36.3616 50.4572 36.1656 50.0733 35.6355C50.1285 35.108 50.0759 34.9515 50.4073 34.5069C52.6992 31.4367 59.208 30.3028 62.7188 29.924C64.6964 29.8437 68.0258 29.699 69.7694 30.6751C70.2967 30.971 70.2822 30.9684 70.4295 31.5801ZM68.6333 41.2879C67.7707 42.2758 65.9167 41.5799 64.7451 41.4878C61.346 41.2234 57.8326 42.4415 54.7478 43.7201C53.4605 44.3686 52.4086 45.3512 51.0818 45.9313C50.4822 45.6577 50.2981 45.4512 49.9497 44.8948C49.9918 44.4212 49.9365 44.2857 50.239 43.8885C52.2008 41.3181 59.2935 39.8212 62.4059 39.4713C63.9995 39.3542 66.6451 39.1359 67.9995 40.0803C68.5899 40.4907 68.5689 40.6275 68.6333 41.2879ZM54.7478 43.7201C57.8326 42.4415 61.346 41.2234 64.7451 41.4878C65.9167 41.5799 67.7707 42.2758 68.6333 41.2879C68.5689 40.6275 68.5899 40.4907 67.9995 40.0803C66.6451 39.1359 63.9995 39.3542 62.4059 39.4713C59.2935 39.8212 52.2008 41.3181 50.239 43.8885C49.9365 44.2857 49.9918 44.4212 49.9497 44.8948C50.2981 45.4512 50.4822 45.6577 51.0818 45.9313C52.4086 45.3512 53.4605 44.3686 54.7478 43.7201ZM62.7188 29.924C59.208 30.3028 52.6992 31.4367 50.4073 34.5069C50.0759 34.9515 50.1285 35.108 50.0733 35.6355C50.4572 36.1656 50.4717 36.3616 51.1042 36.5931C52.6531 35.479 54.1022 34.374 55.8931 33.6795C55.9339 33.6637 55.9733 33.6466 56.0128 33.6308C59.3553 32.5416 62.5255 31.7932 66.0653 32.0826C67.0607 32.1641 68.444 32.6837 69.3973 32.5969C70.0021 32.5417 70.1783 32.0312 70.4295 31.5801C70.2822 30.9684 70.2967 30.971 69.7694 30.6751C68.0258 29.699 64.6964 29.8437 62.7188 29.924ZM53.4105 16.2817C54.1443 15.8595 54.8661 15.4135 55.5854 14.9663C59.442 13.2365 63.3342 12.1158 67.5945 12.2644C68.6635 12.3012 70.3598 12.788 71.2592 12.271C71.2552 11.6199 71.2697 11.633 70.8121 11.2068C69.488 9.96768 66.8884 10.1032 65.1987 10.2242C65.0462 10.2347 64.8963 10.2531 64.7451 10.2676C60.5308 10.6978 53.7971 12.1776 50.9608 15.6003C50.7452 15.8608 50.6071 16.141 50.4559 16.4422L50.5598 16.8579C51.6972 17.1696 52.4243 16.8513 53.4105 16.2817ZM66.9805 22.5155C67.9653 22.5773 69.0225 22.9693 69.985 22.9654C70.7372 22.9614 70.8463 22.4958 71.2184 21.9407L71.2658 21.3737C70.3585 20.3714 68.49 20.3806 67.2106 20.3095C66.0377 20.2438 64.7201 20.2306 63.5551 20.374C59.9562 20.7265 51.805 22.1695 49.6236 25.3713C49.2659 25.8974 49.3829 26.1974 49.4553 26.7906L49.9037 27.2063C51.6748 26.8353 53.2948 25.3884 54.9477 24.6096C58.7465 23.164 62.8884 22.2629 66.9805 22.5155ZM72.1362 50.3446C69.6103 49.0962 64.6438 49.3185 61.8562 49.5422C58.3507 50.0946 53.4 51.6876 50.9871 54.4355L50.8215 55.0932C51.1844 55.6431 51.2843 55.7207 51.8708 56.0219C54.3165 55.2445 56.4848 53.2898 59.0423 52.3979C62.3204 51.6389 65.1435 51.5113 68.4847 51.852C69.3881 51.9454 71.0094 52.3466 71.8456 52.2204C72.3874 52.1388 72.6083 51.6666 72.8673 51.2601C72.6859 50.7221 72.678 50.6116 72.1362 50.3446ZM67.9995 40.0803C66.6451 39.1359 63.9995 39.3542 62.4059 39.4713C59.2935 39.8212 52.2008 41.3181 50.239 43.8885C49.9365 44.2857 49.9918 44.4212 49.9497 44.8948C50.2981 45.4512 50.4822 45.6577 51.0818 45.9313C52.4086 45.3512 53.4605 44.3686 54.7478 43.7201C57.8326 42.4415 61.346 41.2234 64.7451 41.4878C65.9167 41.5799 67.7707 42.2758 68.6333 41.2879C68.5689 40.6275 68.5899 40.4907 67.9995 40.0803ZM69.7694 30.6751C68.0258 29.699 64.6964 29.8437 62.7188 29.924C59.208 30.3028 52.6992 31.4367 50.4073 34.5069C50.0759 34.9515 50.1285 35.108 50.0733 35.6355C50.4572 36.1656 50.4717 36.3616 51.1042 36.5931C52.6531 35.479 54.1022 34.374 55.8931 33.6795C55.9339 33.6637 55.9733 33.6466 56.0128 33.6308C59.3553 32.5416 62.5255 31.7932 66.0653 32.0826C67.0607 32.1641 68.444 32.6837 69.3973 32.5969C70.0021 32.5417 70.1783 32.0312 70.4295 31.5801C70.2822 30.9684 70.2967 30.971 69.7694 30.6751ZM70.8121 11.2068C69.488 9.96768 66.8884 10.1032 65.1987 10.2242C65.0462 10.2347 64.8963 10.2531 64.7451 10.2676C60.5308 10.6978 53.7971 12.1776 50.9608 15.6003C50.7452 15.8608 50.6071 16.141 50.4559 16.4422L50.5598 16.8579C51.6972 17.1696 52.4243 16.8513 53.4105 16.2817C54.1443 15.8595 54.8661 15.4135 55.5854 14.9663C59.442 13.2365 63.3342 12.1158 67.5945 12.2644C68.6635 12.3012 70.3598 12.788 71.2592 12.271C71.2552 11.6199 71.2697 11.633 70.8121 11.2068ZM72.1362 50.3446C69.6103 49.0962 64.6438 49.3185 61.8562 49.5422C58.3507 50.0946 53.4 51.6876 50.9871 54.4355L50.8215 55.0932C51.1844 55.6431 51.2843 55.7207 51.8708 56.0219C54.3165 55.2445 56.4848 53.2898 59.0423 52.3979C62.3204 51.6389 65.1435 51.5113 68.4847 51.852C69.3881 51.9454 71.0094 52.3466 71.8456 52.2204C72.3874 52.1388 72.6083 51.6666 72.8673 51.2601C72.6859 50.7221 72.678 50.6116 72.1362 50.3446ZM67.2106 20.3095C66.0377 20.2438 64.7201 20.2306 63.5551 20.374C59.9562 20.7265 51.805 22.1695 49.6236 25.3713C49.2659 25.8974 49.3829 26.1974 49.4553 26.7906L49.9037 27.2063C51.6748 26.8353 53.2948 25.3884 54.9477 24.6096C58.7465 23.164 62.8884 22.2629 66.9805 22.5155C67.9653 22.5773 69.0225 22.9693 69.985 22.9654C70.7372 22.9614 70.8463 22.4958 71.2184 21.9407L71.2658 21.3737C70.3585 20.3714 68.49 20.3806 67.2106 20.3095ZM22.0196 50.8655C20.3365 50.7629 18.66 50.7694 16.9821 50.9299C16.7323 51.6495 16.6823 51.7718 16.8388 52.5084C18.0341 53.4569 21.6816 52.9688 23.32 53.1622C25.8434 53.4608 28.3404 54.1198 30.6967 55.0682C32.7966 55.9141 35.7802 57.9451 37.9603 58.0845C38.1023 57.2637 38.2798 56.9611 37.7657 56.2113C35.6829 53.174 25.7119 51.093 22.0196 50.8655ZM35.8196 42.2442C30.8387 40.0501 26.3746 39.4818 20.9861 39.7133C20.4036 40.3421 20.368 40.4092 20.2339 41.255C20.4062 41.6009 20.4141 41.8443 20.8112 41.9824C21.8145 42.331 23.224 41.8838 24.2918 41.8417C28.9702 41.6562 34.2351 43.3991 37.8551 46.3575C38.531 45.6354 38.6138 45.5406 38.7939 44.5751C38.3048 43.3294 36.9807 42.7559 35.8196 42.2442ZM25.4094 12.5472C26.798 12.6117 28.2536 12.98 29.5961 13.3286C32.197 14.006 37.195 17.017 38.2903 17.1946C38.6007 16.4646 38.8755 16.1659 38.5349 15.3662C37.6342 13.247 32.1944 11.8132 30.1129 11.3226C26.4969 10.4702 22.4982 10.115 18.7967 10.4965C18.5811 11.3423 18.4562 11.4068 18.8493 12.1684C20.7283 13.0826 23.3753 12.4512 25.4094 12.5472ZM37.9787 33.4993C33.4396 29.9713 26.4127 29.7727 20.9519 30.1975C20.0249 30.4212 19.7053 30.5198 19.086 31.2473L18.9756 31.7998C19.7303 32.5061 20.6179 32.5495 21.6251 32.5219C28.5534 32.3312 31.8302 31.6393 37.93 36.1972C38.7229 36.0275 38.9544 36.0025 39.5605 35.4816C39.4711 34.67 38.5888 33.9741 37.9787 33.4993ZM19.7158 20.62C19.0452 21.2487 18.923 21.3277 18.702 22.209C19.0295 22.7391 19.1386 22.8957 19.8263 22.9825C21.4805 23.189 23.5133 22.8378 25.199 22.7917C30.3482 22.6523 34.2049 24.432 38.7137 26.7117C39.3883 26.2473 39.5106 26.1605 39.8577 25.4252C39.3738 24.1729 37.7591 23.5205 36.5809 23.0061C31.1793 20.6489 25.5475 20.2017 19.7158 20.62ZM35.8196 42.2442C30.8387 40.0501 26.3746 39.4818 20.9861 39.7133C20.4036 40.3421 20.368 40.4092 20.2339 41.255C20.4062 41.6009 20.4141 41.8443 20.8112 41.9824C21.8145 42.331 23.224 41.8838 24.2918 41.8417C28.9702 41.6562 34.2351 43.3991 37.8551 46.3575C38.531 45.6354 38.6138 45.5406 38.7939 44.5751C38.3048 43.3294 36.9807 42.7559 35.8196 42.2442ZM38.5349 15.3662C37.6342 13.247 32.1944 11.8132 30.1129 11.3226C26.4969 10.4702 22.4982 10.115 18.7967 10.4965C18.5811 11.3423 18.4562 11.4068 18.8493 12.1684C20.7283 13.0826 23.3753 12.4512 25.4094 12.5472C26.798 12.6117 28.2536 12.98 29.5961 13.3286C32.197 14.006 37.195 17.017 38.2903 17.1946C38.6007 16.4646 38.8755 16.1659 38.5349 15.3662ZM37.9787 33.4993C33.4396 29.9713 26.4127 29.7727 20.9519 30.1975C20.0249 30.4212 19.7053 30.5198 19.086 31.2473L18.9756 31.7998C19.7303 32.5061 20.6179 32.5495 21.6251 32.5219C28.5534 32.3312 31.8302 31.6393 37.93 36.1972C38.7229 36.0275 38.9544 36.0025 39.5605 35.4816C39.4711 34.67 38.5888 33.9741 37.9787 33.4993ZM36.5809 23.0061C31.1793 20.6489 25.5475 20.2017 19.7158 20.62C19.0452 21.2487 18.923 21.3277 18.702 22.209C19.0295 22.7391 19.1386 22.8957 19.8263 22.9825C21.4805 23.189 23.5133 22.8378 25.199 22.7917C30.3482 22.6523 34.2049 24.432 38.7137 26.7117C39.3883 26.2473 39.5106 26.1605 39.8577 25.4252C39.3738 24.1729 37.7591 23.5205 36.5809 23.0061ZM37.7657 56.2113C35.6829 53.174 25.7119 51.093 22.0196 50.8655C20.3365 50.7629 18.66 50.7694 16.9821 50.9299C16.7323 51.6495 16.6823 51.7718 16.8388 52.5084C18.0341 53.4569 21.6816 52.9688 23.32 53.1622C25.8434 53.4608 28.3404 54.1198 30.6967 55.0682C32.7966 55.9141 35.7802 57.9451 37.9603 58.0845C38.1023 57.2637 38.2798 56.9611 37.7657 56.2113Z" fill="#0060D0"/>
</svg>
