<svg width="79" height="94" viewBox="0 0 79 94" fill="none" xmlns="http://www.w3.org/2000/svg">
<path d="M69.5415 36.5653C71.9217 36.5785 74.3086 36.3293 76.6848 36.5059C77.7628 36.5864 78.2946 36.6787 79 37.5066L78.8846 38.5455C76.1477 38.684 72.9719 39.0663 70.3212 38.2924C69.6211 37.6714 69.6967 37.4578 69.5415 36.5653ZM61.9792 60.8098C62.6038 62.3063 66.0475 65.9148 67.6268 66.5081C67.7594 66.5582 68.1015 66.6175 68.2553 66.6465C68.4661 66.2404 68.8162 65.8845 68.6664 65.4191C68.1611 63.833 64.4722 60.1361 62.995 59.5191C62.7258 59.407 62.4142 59.3912 62.1264 59.3793C61.9156 59.9687 61.7246 60.202 61.9779 60.8112L61.9792 60.8098ZM8.39753 66.0572L9.06452 66.7006L10.0988 66.4791C11.5588 65.0103 15.1708 62.1045 15.5342 60.1084C15.1854 59.6101 15.0462 59.5204 14.3938 59.44C14.2678 59.4242 14.1405 59.4413 14.0145 59.4426C12.3796 61.0524 8.85899 63.8317 8.39886 66.0572H8.39753ZM0.30485 38.6761C2.55908 39.7967 6.3369 38.9965 8.86164 39.0162C9.01015 38.2634 9.15071 38.0406 8.81921 37.3286C6.8819 36.1539 2.39996 36.8461 0.123186 36.8725C0.00251824 37.7176 -0.14467 37.9219 0.30485 38.6761ZM10.5112 13.3319C11.3028 14.8165 15.0754 18.7217 16.5936 19.1014C16.8748 19.1713 17.014 19.1726 17.2885 19.1924C17.502 18.5648 17.7353 18.2629 17.445 17.6221C16.8549 16.3169 12.9285 12.4328 11.5256 11.9265C11.2379 11.8223 10.8798 11.8131 10.5762 11.8026C10.3746 12.4525 10.1717 12.6938 10.5112 13.3306V13.3319ZM37.863 9.12088C38.1255 9.84734 38.3509 9.9739 39.0126 10.3167C40.1636 8.61724 40.0138 3.56239 39.6146 1.51619C39.5457 1.16417 39.433 0.907078 39.2871 0.581427C38.9171 0.36916 38.5697 0.164803 38.1759 0C37.1085 1.87612 37.1085 7.03381 37.863 9.12088ZM60.7407 17.5562C60.8667 18.3907 61.0245 18.4461 61.6318 19.0566C63.5943 17.3386 66.5938 15.2423 67.6572 12.8415C67.6055 12.1177 67.6095 11.9951 67.0128 11.5072C66.9187 11.4308 66.8099 11.3741 66.7078 11.3082C64.6684 12.6978 61.5735 15.1975 60.7421 17.5562H60.7407ZM52.9676 81.2244C52.7714 81.3997 52.5725 81.5724 52.3802 81.7531C51.139 82.9146 52.1442 84.498 52.0301 86.0511C51.9837 86.6853 51.7954 86.9819 51.269 87.3656C50.7625 87.7321 50.2374 87.599 49.6765 87.5001C49.0506 87.388 48.6912 87.3432 48.0614 87.5265C47.3652 88.2331 47.3241 88.6563 47.0562 89.5938C46.9488 89.9089 46.8467 90.2147 46.6903 90.5101C45.8032 92.1831 44.2968 93.1166 42.4868 93.5648C39.6955 94.2557 34.9683 94.2399 32.5377 92.6617C30.5341 91.3618 29.9082 89.7111 29.4587 87.4592C28.0783 87.4843 26.7244 87.5225 25.3493 87.3735C23.8032 85.9865 25.6358 84.498 25.2194 82.817C25.0152 81.9957 24.6161 81.8058 23.9716 81.3338C23.7263 80.6192 24.0193 80.2936 24.2792 79.6119C28.7068 79.5144 50.3275 78.9989 52.5804 79.9046C53.0326 80.5216 53.0658 80.4755 52.9676 81.2244ZM45.221 88.2292L45.0274 87.6227C40.8067 87.1085 36.0649 87.3972 31.8031 87.4948C32.0497 88.804 32.2221 89.9036 33.4288 90.6788C35.7161 92.1528 39.9461 91.9867 42.5199 91.2721C43.0649 91.1218 43.5927 90.895 44.0648 90.5892C44.631 89.7862 44.9704 89.1811 45.221 88.2292ZM49.6592 85.2759L49.634 81.8612C42.1593 81.8533 34.6792 81.79 27.2044 81.8783L27.4365 85.264L49.6592 85.2759ZM60.3297 52.8637C58.3937 55.7576 55.2484 57.7208 53.5829 60.8454C51.635 64.4988 51.2173 68.2141 51.2001 72.2762L52.3829 73.8227C52.4651 74.5492 52.5009 74.561 52.1044 75.1675C49.8223 76.3106 44.4466 75.6303 41.7111 75.6118C37.55 75.6329 27.8396 76.3027 24.2541 75.2057L24.0445 74.6428C24.2381 73.7924 24.8362 73.3323 25.4369 72.7456C25.6835 56.2613 14.8897 56.2217 13.1898 42.3861C12.3928 35.8876 14.4588 29.3574 18.5416 24.2564C23.046 18.6294 29.4812 15.597 36.5661 14.7624C37.3829 14.6688 38.2236 14.6781 39.0444 14.6767C45.5936 14.6688 52.6852 17.8752 57.2507 22.4963C65.0344 30.3726 66.5275 43.6057 60.3297 52.8637ZM40.4209 49.9658C38.7845 49.9486 37.1469 49.9157 35.5106 49.917C36.1458 55.2619 36.1763 67.9636 35.5305 73.352L40.0986 73.3745C40.096 66.5015 39.5192 56.4683 40.4209 49.9658ZM55.1569 23.4021C50.1671 18.7243 43.476 16.5265 36.6881 16.8429C36.3129 16.8614 35.9495 16.8957 35.5756 16.9365C29.0874 17.9807 23.2741 21.1318 19.4114 26.5149C15.9717 31.3061 14.472 37.471 15.4758 43.2853C17.1731 53.1115 24.7792 55.7563 26.8 64.6517C27.4498 67.5127 27.3914 70.4291 27.3689 73.3428C29.1762 73.3758 31.0844 73.5247 32.8665 73.2123C34.2615 71.4561 33.6595 55.4794 33.3214 52.5301C33.2126 51.5795 33.0827 50.6316 32.9421 49.6836C31.213 49.205 28.5411 48.0976 27.5983 46.4957C27.3835 46.1318 27.4829 45.9287 27.5214 45.5345C27.9749 45.0375 28.0571 44.9188 28.6936 44.7277C30.1734 45.2234 31.2926 46.7013 32.6769 47.4805C35.5013 47.6097 38.3218 47.5623 41.1488 47.528C41.2509 47.5254 41.3544 47.524 41.4578 47.5214C43.8738 47.4423 45.3072 44.9531 47.4249 45.3038C47.6994 45.9604 47.6476 46.0764 47.5164 46.7857C46.3866 48.3125 45.0487 49.118 43.2652 49.714C41.4883 54.9969 42.386 67.3242 42.4231 73.2703L49.15 73.265C49.0108 69.0579 49.1978 65.1264 51.0051 61.2462C52.8456 57.2949 56.3728 54.9296 58.6788 51.3673C64.2984 42.6907 62.6621 30.4372 55.1569 23.4021Z" fill="#0060D0"/>
</svg>
