<svg width="86" height="83" viewBox="0 0 86 83" fill="none" xmlns="http://www.w3.org/2000/svg">
<path d="M27.7173 45.8719C27.1524 45.9791 26.9414 45.9268 26.4219 45.6914C24.9316 43.7656 25.7355 40.5167 26.0453 38.2889L27.4008 38.6209C28.3316 39.8499 27.6438 44.0977 27.7173 45.8719ZM37.5247 57.3549C36.2614 56.5077 34.6348 56.1835 33.4196 55.2421C31.9092 54.0733 30.9103 52.0887 29.4426 51.0035C29.0567 50.7185 28.3223 50.7486 27.8682 50.7407C28.3409 53.3895 30.7727 55.7926 32.9615 57.3105C34.2556 58.2074 36.2961 59.4638 37.9694 59.1565C38.1123 59.1304 38.2538 59.0951 38.3954 59.065C38.2351 58.2636 38.2832 57.8635 37.5247 57.3549ZM29.9461 33.1716C31.5566 31.5517 33.1298 29.8521 35.0581 28.5904C36.7154 27.5039 40.1394 27.4216 41.0636 25.7206C40.8259 25.1231 40.7765 25.1349 40.2049 24.8054L39.7108 24.8264C35.9716 25.6383 30.917 28.0243 28.8671 31.3229C28.6628 31.6524 28.608 31.9636 28.5693 32.3401L28.9365 33.0526C29.3252 33.1507 29.5415 33.2161 29.9461 33.1716ZM49.8213 45.7281C48.7797 48.0631 46.9835 49.0973 44.6452 49.9589C43.267 50.1027 41.8848 50.1837 40.5561 49.7183C38.6905 49.0672 37.1761 47.7755 36.3415 46.0079C35.4628 44.1461 35.3893 41.9052 36.1946 40.0055C37.2122 37.6038 39.0845 36.397 41.4161 35.4021C42.8571 35.2426 44.0896 35.189 45.4758 35.6727C47.4469 36.363 48.9947 37.8221 49.8013 39.71C50.6119 41.6123 50.6693 43.8271 49.8213 45.7281ZM48.1267 40.8972C47.6806 39.5139 46.6337 38.4065 45.2902 37.8077C44.4382 37.4286 43.474 37.3632 42.5512 37.3109C40.7137 37.7973 39.202 38.5373 38.2578 40.2395C37.5527 41.5116 37.4192 42.9772 37.8585 44.3566C38.2912 45.7215 39.2968 46.91 40.5975 47.565C41.4361 47.9873 42.435 48.1076 43.3645 48.1912C45.2381 47.6997 46.5348 47.1244 47.5524 45.4326C48.3724 44.0702 48.6168 42.4138 48.1267 40.8972ZM49.9575 28.3747C51.09 29.0559 52.3867 29.6952 53.3295 30.6221C54.5114 31.7844 55.3914 33.756 56.7762 34.6085C57.1836 33.807 57.4493 33.4802 57.1395 32.5597C56.1406 29.605 51.6135 26.8869 48.8117 25.7076C48.6635 25.6448 48.5099 25.5938 48.359 25.5376L47.6793 26.5548C47.8996 27.3706 49.207 27.9223 49.9575 28.3747ZM59.6755 40.8553L58.6378 40.5768C58.3654 45.8013 57.8179 50.304 53.6273 54.1021C50.9551 56.5234 48.1534 57.4464 44.6692 58.1132C44.2579 58.1917 44.3874 58.1734 43.9721 58.461L43.693 59.2951C43.9695 59.7292 43.8693 59.7763 44.4235 59.9018C45.2715 60.0927 46.2464 59.8168 47.0797 59.6351C51.4452 58.5447 55.2418 56.207 57.6563 52.4037C58.0369 51.8036 58.324 51.1656 58.5938 50.5132C58.4335 50.0556 58.2786 49.598 58.133 49.1365L58.3414 48.9116L58.953 49.0188C60.2083 47.6748 60.5435 44.8351 60.4861 43.0818C60.458 42.1967 60.3125 41.5221 59.6755 40.8553ZM85.6803 42.9066C84.1726 47.9297 78.8683 50.7146 74.5081 53.0313C75.8756 57.1771 77.4046 62.4565 76.2361 66.8063C75.6726 68.9034 74.4239 70.7364 72.4422 71.7692C67.4022 74.3958 61.0136 71.5038 56.0418 70.1362C53.5565 75.1463 50.6333 80.8257 45.0138 82.8666C43.4887 83.1307 41.9035 83.0104 40.4613 82.4364C35.5883 80.4989 33.2259 74.9933 31.387 70.5742C26.4139 71.6241 20.2175 73.41 15.1976 72.0542C13.081 71.4829 11.2795 70.2291 10.2018 68.3359C7.67783 63.8999 9.73838 57.5445 11.011 52.9999C7.77129 50.8584 3.83578 48.7168 1.5976 45.4901C0.248814 43.5486 -0.353449 41.2188 0.211438 38.906C1.44938 33.8358 7.31059 30.9333 11.4357 28.3433C10.3353 24.2014 8.90641 19.4934 9.95339 15.2011C10.3994 13.3694 11.4277 11.7757 13.101 10.7991C17.7456 8.08748 25.1105 10.1859 30.0196 11.3011C33.1284 7.04414 36.005 2.22371 41.1357 0.144917C42.4711 0.0246349 43.8186 -0.107419 45.1487 0.139683C50.3742 1.11109 53.5111 6.19826 56.174 10.2343C59.8664 9.35567 63.9835 8.09662 67.8029 8.78824C70.3762 9.25368 72.6839 10.6396 74.1048 12.8151C77.1362 17.4564 75.5056 23.3385 74.3425 28.2975C78.0924 30.3986 82.4485 32.6173 84.7281 36.3813C85.9327 38.3686 86.352 40.667 85.6803 42.9066ZM57.4266 11.9496C58.5283 14.5318 59.3857 17.1387 60.2203 19.8111C62.6334 21.8428 64.8048 23.7817 67.7842 25.0042C69.4748 25.7062 71.1802 26.3887 72.8401 27.1614C73.5946 22.7136 74.8566 17.395 71.9961 13.3956C70.8704 11.8254 69.0462 10.8213 67.1085 10.5467C66.5983 10.4735 66.0388 10.4722 65.522 10.5062C62.8017 10.8239 60.0774 11.2632 57.4266 11.9496ZM14.3416 48.3141C14.0251 49.598 13.7046 50.8649 13.5203 52.1749C14.4685 52.9006 15.4046 53.6746 16.4222 54.3021C16.4543 53.1254 15.0895 49.3823 14.3416 48.3141ZM14.8584 33.0618C16.3007 31.6524 17.3931 28.963 18.3372 27.1732C18.0448 26.9065 18.193 26.9535 17.9513 26.913C16.4463 27.5733 14.9239 28.189 13.5283 29.0545C13.9263 30.4025 14.2815 31.774 14.8584 33.0618ZM26.1161 62.9049C31.8651 67.2966 38.4755 68.6902 45.6187 68.4471C52.6551 67.5044 59.5366 64.6046 63.9702 58.9565C67.9965 53.8249 70.5726 46.0471 69.6645 39.5714C68.691 32.6225 64.4403 25.6226 58.7366 21.3957C53.7942 17.7336 47.2226 15.5908 40.9995 16.2013C33.7895 16.9662 26.2256 20.2465 21.5983 25.8827C17.2582 31.1699 15.0587 38.2915 15.8199 45.039C16.5758 51.7461 20.6916 58.763 26.1161 62.9049ZM69.6685 53.9517L69.9289 53.8288C70.7141 53.4928 71.8573 53.1607 72.2312 52.3423C72.9216 50.827 71.8773 48.7024 71.3832 47.2224C71.0386 48.3808 69.2745 53.2405 69.6685 53.9517ZM72.3113 29.5645C70.5525 28.5211 68.751 27.517 66.816 26.8202C67.6627 28.3839 69.6511 33.4383 70.8116 34.4241L71.1855 33.9456C71.5768 32.4892 71.9894 31.0366 72.3113 29.5645ZM54.6008 12.3091C52.7379 12.921 51.2075 13.6558 49.7359 14.9697C51.2275 15.4796 52.7285 15.9751 54.2122 16.5046C55.3153 17.0067 56.4317 17.4813 57.4773 18.0919C56.8657 16.0758 56.198 13.8009 54.6008 12.3091ZM32.6357 11.1834C34.9366 11.7273 36.9838 12.517 38.5837 14.3199C40.4453 14.2454 42.3149 14.1356 44.1791 14.1683L47.1731 14.299C49.1469 12.402 50.9965 11.407 53.6433 10.5703C51.6709 7.27427 48.984 3.11536 44.935 2.12695C43.9654 1.89031 42.9478 1.97269 41.961 2.03806C37.7049 3.82922 35.2785 7.64557 32.6357 11.1834ZM28.2007 17.8866C29.4293 17.3636 30.6659 16.8537 31.8825 16.302C32.9976 15.8901 34.3277 15.5803 35.1076 14.6599L35.0675 14.1526C34.0352 13.4152 32.4674 13.4152 31.2295 13.3629C29.9114 14.7697 28.9032 16.0732 28.2007 17.8866ZM11.8978 20.8662C12.1609 22.7829 12.6336 24.7165 13.3254 26.5273L19.5338 23.9661C24.9903 20.874 25.4778 17.8421 28.6708 13.1759C25.3001 12.3052 22.007 11.7038 18.5135 11.5979C16.3915 11.7835 14.5726 11.9156 13.121 13.6597C11.4865 15.6195 11.5733 18.4906 11.8978 20.8662ZM11.6988 50.8414C12.2143 48.9744 13.081 47.0577 13.4709 45.1894C14.4485 40.4892 13.7273 35.6348 12.1555 31.187L11.6213 30.6993C8.18395 32.931 3.21614 35.4178 2.43091 39.7676C2.09171 41.6476 2.65659 43.4113 3.79972 44.9266C4.84136 46.3073 6.31168 47.2826 7.7259 48.2658L11.6988 50.8414ZM32.3846 68.5948C26.1869 66.0271 22.3262 62.8971 18.5001 57.5066C16.6239 56.577 14.7463 55.6514 12.894 54.676C11.835 58.2989 10.0135 63.7365 12.0006 67.3188C12.8299 68.8119 14.2748 69.6865 15.9187 70.118C19.7581 71.1247 24.332 69.8303 28.1152 69.0354C29.5375 68.8524 30.949 68.6746 32.3846 68.5948ZM53.4911 69.408C53.1626 69.0576 53.3308 69.1204 53.0838 69.0563C49.7452 69.9258 46.4601 70.5899 42.9879 70.5612C40.2156 70.5376 37.3311 69.9885 34.6081 70.5677C34.4385 70.603 34.2676 70.6331 34.098 70.6697C33.9965 70.6906 33.8963 70.7181 33.7948 70.7416C34.8899 73.2989 36.1559 75.5542 37.8251 77.7964C39.2687 79.3941 40.6736 80.9094 43.02 80.9748C44.9617 81.0284 46.7258 79.9249 48.0706 78.6436C50.2299 76.5857 53.0637 72.3262 53.4911 69.408ZM73.0298 55.1611C72.9376 55.0068 72.8241 54.8656 72.7226 54.7166C66.7479 57.6151 67.214 58.8676 62.8725 62.9416C60.7852 64.8988 58.4549 66.3578 55.9737 67.7894C57.2784 68.149 58.5857 68.4954 59.8744 68.9034C63.2651 70.0657 67.5785 71.6699 71.068 70.0016C72.6118 69.2642 73.6534 67.962 74.1515 66.367C74.91 63.9365 74.3211 57.334 73.0298 55.1611ZM84.1085 40.7141C83.2738 37.0939 81.2106 34.7706 78.0536 32.7964C76.8357 32.0355 75.539 31.3465 74.2557 30.6954C73.6107 33.0383 72.6665 35.44 72.2245 37.8169C71.4726 41.8607 73.2728 46.7178 74.3946 50.606C76.1026 49.853 77.6236 48.9757 79.1888 47.969C81.6847 45.9451 83.3606 43.8728 84.1085 40.7141ZM27.4008 38.6209L26.0453 38.2889C25.7355 40.5167 24.9316 43.7656 26.4219 45.6914C26.9414 45.9268 27.1524 45.9791 27.7173 45.8719C27.6438 44.0977 28.3316 39.8499 27.4008 38.6209ZM37.5247 57.3549C36.2614 56.5077 34.6348 56.1835 33.4196 55.2421C31.9092 54.0733 30.9103 52.0887 29.4426 51.0035C29.0567 50.7185 28.3223 50.7486 27.8682 50.7407C28.3409 53.3895 30.7727 55.7926 32.9615 57.3105C34.2556 58.2074 36.2961 59.4638 37.9694 59.1565C38.1123 59.1304 38.2538 59.0951 38.3954 59.065C38.2351 58.2636 38.2832 57.8635 37.5247 57.3549ZM29.9461 33.1716C31.5566 31.5517 33.1298 29.8521 35.0581 28.5904C36.7154 27.5039 40.1394 27.4216 41.0636 25.7206C40.8259 25.1231 40.7765 25.1349 40.2049 24.8054L39.7108 24.8264C35.9716 25.6383 30.917 28.0243 28.8671 31.3229C28.6628 31.6524 28.608 31.9636 28.5693 32.3401L28.9365 33.0526C29.3252 33.1507 29.5415 33.2161 29.9461 33.1716ZM49.8213 45.7281C48.7797 48.0631 46.9835 49.0973 44.6452 49.9589C43.267 50.1027 41.8848 50.1837 40.5561 49.7183C38.6905 49.0672 37.1761 47.7755 36.3415 46.0079C35.4628 44.1461 35.3893 41.9052 36.1946 40.0055C37.2122 37.6038 39.0845 36.397 41.4161 35.4021C42.8571 35.2426 44.0896 35.189 45.4758 35.6727C47.4469 36.363 48.9947 37.8221 49.8013 39.71C50.6119 41.6123 50.6693 43.8271 49.8213 45.7281ZM48.1267 40.8972C47.6806 39.5139 46.6337 38.4065 45.2902 37.8077C44.4382 37.4286 43.474 37.3632 42.5512 37.3109C40.7137 37.7973 39.202 38.5373 38.2578 40.2395C37.5527 41.5116 37.4192 42.9772 37.8585 44.3566C38.2912 45.7215 39.2968 46.91 40.5975 47.565C41.4361 47.9873 42.435 48.1076 43.3645 48.1912C45.2381 47.6997 46.5348 47.1244 47.5524 45.4326C48.3724 44.0702 48.6168 42.4138 48.1267 40.8972ZM49.9575 28.3747C51.09 29.0559 52.3867 29.6952 53.3295 30.6221C54.5114 31.7844 55.3914 33.756 56.7762 34.6085C57.1836 33.807 57.4493 33.4802 57.1395 32.5597C56.1406 29.605 51.6135 26.8869 48.8117 25.7076C48.6635 25.6448 48.5099 25.5938 48.359 25.5376L47.6793 26.5548C47.8996 27.3706 49.207 27.9223 49.9575 28.3747ZM58.953 49.0188C60.2083 47.6748 60.5435 44.8351 60.4861 43.0818C60.458 42.1967 60.3125 41.5221 59.6755 40.8553L58.6378 40.5768C58.3654 45.8013 57.8179 50.304 53.6273 54.1021C50.9551 56.5234 48.1534 57.4464 44.6692 58.1132C44.2579 58.1917 44.3874 58.1734 43.9721 58.461L43.693 59.2951C43.9695 59.7292 43.8693 59.7763 44.4235 59.9018C45.2715 60.0927 46.2464 59.8168 47.0797 59.6351C51.4452 58.5447 55.2418 56.207 57.6563 52.4037C58.0369 51.8036 58.324 51.1656 58.5938 50.5132C58.4335 50.0556 58.2786 49.598 58.133 49.1365L58.3414 48.9116L58.953 49.0188ZM27.4008 38.6209L26.0453 38.2889C25.7355 40.5167 24.9316 43.7656 26.4219 45.6914C26.9414 45.9268 27.1524 45.9791 27.7173 45.8719C27.6438 44.0977 28.3316 39.8499 27.4008 38.6209ZM57.1395 32.5597C56.1406 29.605 51.6135 26.8869 48.8117 25.7076C48.6635 25.6448 48.5099 25.5938 48.359 25.5376L47.6793 26.5548C47.8996 27.3706 49.207 27.9223 49.9575 28.3747C51.09 29.0559 52.3867 29.6952 53.3295 30.6221C54.5114 31.7844 55.3914 33.756 56.7762 34.6085C57.1836 33.807 57.4493 33.4802 57.1395 32.5597ZM37.5247 57.3549C36.2614 56.5077 34.6348 56.1835 33.4196 55.2421C31.9092 54.0733 30.9103 52.0887 29.4426 51.0035C29.0567 50.7185 28.3223 50.7486 27.8682 50.7407C28.3409 53.3895 30.7727 55.7926 32.9615 57.3105C34.2556 58.2074 36.2961 59.4638 37.9694 59.1565C38.1123 59.1304 38.2538 59.0951 38.3954 59.065C38.2351 58.2636 38.2832 57.8635 37.5247 57.3549ZM40.2049 24.8054L39.7108 24.8264C35.9716 25.6383 30.917 28.0243 28.8671 31.3229C28.6628 31.6524 28.608 31.9636 28.5693 32.3401L28.9365 33.0526C29.3252 33.1507 29.5415 33.2161 29.9461 33.1716C31.5566 31.5517 33.1298 29.8521 35.0581 28.5904C36.7154 27.5039 40.1394 27.4216 41.0636 25.7206C40.8259 25.1231 40.7765 25.1349 40.2049 24.8054ZM58.953 49.0188C60.2083 47.6748 60.5435 44.8351 60.4861 43.0818C60.458 42.1967 60.3125 41.5221 59.6755 40.8553L58.6378 40.5768C58.3654 45.8013 57.8179 50.304 53.6273 54.1021C50.9551 56.5234 48.1534 57.4464 44.6692 58.1132C44.2579 58.1917 44.3874 58.1734 43.9721 58.461L43.693 59.2951C43.9695 59.7292 43.8693 59.7763 44.4235 59.9018C45.2715 60.0927 46.2464 59.8168 47.0797 59.6351C51.4452 58.5447 55.2418 56.207 57.6563 52.4037C58.0369 51.8036 58.324 51.1656 58.5938 50.5132C58.4335 50.0556 58.2786 49.598 58.133 49.1365L58.3414 48.9116L58.953 49.0188ZM49.8213 45.7281C48.7797 48.0631 46.9835 49.0973 44.6452 49.9589C43.267 50.1027 41.8848 50.1837 40.5561 49.7183C38.6905 49.0672 37.1761 47.7755 36.3415 46.0079C35.4628 44.1461 35.3893 41.9052 36.1946 40.0055C37.2122 37.6038 39.0845 36.397 41.4161 35.4021C42.8571 35.2426 44.0896 35.189 45.4758 35.6727C47.4469 36.363 48.9947 37.8221 49.8013 39.71C50.6119 41.6123 50.6693 43.8271 49.8213 45.7281ZM48.1267 40.8972C47.6806 39.5139 46.6337 38.4065 45.2902 37.8077C44.4382 37.4286 43.474 37.3632 42.5512 37.3109C40.7137 37.7973 39.202 38.5373 38.2578 40.2395C37.5527 41.5116 37.4192 42.9772 37.8585 44.3566C38.2912 45.7215 39.2968 46.91 40.5975 47.565C41.4361 47.9873 42.435 48.1076 43.3645 48.1912C45.2381 47.6997 46.5348 47.1244 47.5524 45.4326C48.3724 44.0702 48.6168 42.4138 48.1267 40.8972Z" fill="#0060D0"/>
</svg>
